<svg xmlns="http://www.w3.org/2000/svg" fill-rule="evenodd" clip-rule="evenodd" image-rendering="optimizeQuality" shape-rendering="geometricPrecision" text-rendering="geometricPrecision" viewBox="0 0 635 542"><path fill="none" d="M0 0h635v542H0z"/><path fill="#fff" d="M524 309c-15-32-34-64-59-93-30-37-60-61-75-72l57-106c3-6 2-12-2-16-15-15-31-22-48-22-16 0-31 6-44 11-10 5-20 9-27 9-3 0-5-1-7-1-27-10-47-16-67-16-25 0-47 10-68 31-4 5-5 12-2 17l62 94c-15 11-44 35-74 71-24 29-44 61-58 93-18 42-27 85-27 128 0 58 47 105 105 105h256c57 0 104-47 104-105 0-43-9-86-26-128zm-188 31h-31c-11 0-20-9-20-20 0-12 9-21 20-21h54c8 0 14-6 14-13 0-8-6-14-14-14h-25v-19c0-7-6-13-14-13-7 0-13 6-13 13v19h-2c-26 0-48 22-48 48s22 47 48 47h31c11 0 20 9 20 21 0 11-9 20-20 20h-56c-7 0-13 6-13 13 0 8 6 14 13 14h27v19c0 8 6 14 13 14 8 0 14-6 14-14v-19h3c25 0 46-22 46-47 0-27-21-48-47-48z"/><rect width="213.83" height="47.36" x="208" y="123" fill="#f00000" rx="18" ry="24"/></svg>