<svg xmlns="http://www.w3.org/2000/svg" fill-rule="evenodd" clip-rule="evenodd" image-rendering="optimizeQuality" shape-rendering="geometricPrecision" text-rendering="geometricPrecision" viewBox="0 0 635 542"><defs><style>.fil2{fill:#f00000}</style></defs><g id="Capa_x0020_1"><path fill="none" d="M0 0h635v542H0z"/><path fill="#fff" d="M417 204c-27-30-52-50-65-60l57-106c3-6 2-12-2-16-15-15-31-22-48-22s-31 6-44 11c-10 5-20 9-28 9-2 0-4-1-6-1-27-10-47-16-67-16-26 0-47 10-68 31-5 5-5 12-2 17l62 94c-15 11-44 35-74 71-25 29-44 61-58 93-18 42-27 85-27 128 0 58 47 105 105 105h255c58 0 105-47 105-105 0-20-2-40-5-59-7 1-14 2-20 2-57 0-102-46-102-102 0-30 12-56 32-74zM298 340h-31c-11 0-21-9-21-20 0-12 10-21 21-21h54c8 0 14-6 14-13 0-8-6-14-14-14h-25v-19c0-7-6-13-14-13-7 0-13 6-13 13v19h-2c-26 0-48 22-48 48s22 47 48 47h31c11 0 20 9 20 21 0 11-9 20-20 20h-56c-7 0-13 6-13 13 0 8 6 14 13 14h27v19c0 8 6 14 13 14 8 0 14-6 14-14v-19h2c26 0 47-22 47-47 0-27-21-48-47-48z"/><rect width="213.83" height="47.36" x="170" y="123" class="fil2" rx="18" ry="24"/><path d="M487 356c-22 0-42-9-56-23s-23-34-23-55c0-22 9-42 23-56s34-23 56-23c21 0 41 9 55 23s23 34 23 56c0 21-9 41-23 55s-34 23-55 23zm0 24c-57 0-102-46-102-102 0-57 45-102 102-102 56 0 102 45 102 102 0 56-46 102-102 102z" class="fil2"/><rect width="417.51" height="69.97" class="fil2" rx="35" ry="35" transform="matrix(0 .27034 -.35725 0 499.12 221.19)"/><rect width="112.87" height="25" x="430" y="265" class="fil2" rx="9" ry="12"/></g></svg>