<svg xmlns="http://www.w3.org/2000/svg" fill-rule="evenodd" clip-rule="evenodd" image-rendering="optimizeQuality" shape-rendering="geometricPrecision" text-rendering="geometricPrecision" viewBox="0 0 635 542"><defs><style>.fil1{fill:#f00000}.fil2{fill:#fff}</style></defs><g id="Capa_x0020_1"><path fill="none" d="M0 0h635v542H0z"/><path d="M612 24H24v494h588V24zm23-24H0v542h635V0z" class="fil1"/><rect width="235" height="210" x="56" y="61" class="fil2" rx="21" ry="19"/><rect width="155.5" height="13.14" x="56" y="285" class="fil1" rx="28" ry="7"/><rect width="93.33" height="13.14" x="56" y="316" class="fil1" rx="17" ry="7"/><rect width="69.97" height="60.41" x="56" y="369" class="fil2" rx="6" ry="6"/><rect width="69.97" height="60.41" x="138" y="369" class="fil2" rx="6" ry="6"/><rect width="69.97" height="60.41" x="221" y="369" class="fil2" rx="6" ry="6"/><rect width="54.61" height="13.14" x="56" y="442" class="fil1" rx="10" ry="7"/><rect width="54.61" height="13.14" x="138" y="442" class="fil1" rx="10" ry="7"/><rect width="54.61" height="13.14" x="221" y="442" class="fil1" rx="10" ry="7"/><rect width="117.55" height="13.14" x="56" y="468" class="fil1" rx="21" ry="7"/><rect width="98.29" height="87.2" x="343" y="61" class="fil2" rx="9" ry="8"/><rect width="98.29" height="87.2" x="481" y="61" class="fil2" rx="9" ry="8"/><rect width="66.53" height="13.14" x="343" y="159" class="fil1" rx="12" ry="7"/><rect width="66.53" height="13.14" x="481" y="159" class="fil1" rx="12" ry="7"/><rect width="98.29" height="87.2" x="343" y="200" class="fil2" rx="9" ry="8"/><rect width="98.29" height="87.2" x="481" y="200" class="fil2" rx="9" ry="8"/><rect width="66.53" height="13.14" x="343" y="299" class="fil1" rx="12" ry="7"/><rect width="66.53" height="13.14" x="481" y="299" class="fil1" rx="12" ry="7"/><rect width="236" height="114" x="343" y="340" class="fil2" rx="21" ry="11"/><rect width="180.52" height="13.14" x="343" y="468" class="fil1" rx="32" ry="7"/></g></svg>