<svg xmlns="http://www.w3.org/2000/svg" fill-rule="evenodd" clip-rule="evenodd" image-rendering="optimizeQuality" shape-rendering="geometricPrecision" text-rendering="geometricPrecision" viewBox="0 0 635 542"><defs><style>.fil1{fill:#f00000}</style></defs><g id="Capa_x0020_1"><path fill="none" d="M0 0h635v542H0z"/><path d="M477 218V41c0-5-2-9-6-12-3-3-7-5-12-5H41c-5 0-9 2-12 5s-5 7-5 12v241c0 5 2 10 5 13s8 5 12 5h94v24H41c-22 0-41-19-41-42V41C0 19 19 0 41 0h418c22 0 41 19 41 41v177h-23z" class="fil1"/><rect width="500.06" height="76.36" y="53" class="fil1" rx="41" ry="10"/><path fill="#fff" d="M594 542H177c-23 0-42-19-42-42V260c0-23 19-42 42-42h417c23 0 41 19 41 42v240c0 23-18 42-41 42zm-391-86h99c11 0 19 8 19 19 0 10-8 18-19 18h-99c-10 0-19-8-19-18 0-11 9-19 19-19zm155 0h78c10 0 18 8 18 19 0 10-8 18-18 18h-78c-10 0-19-8-19-18 0-11 9-19 19-19zm133 0h75c10 0 18 8 18 19 0 10-8 18-18 18h-75c-10 0-19-8-19-18 0-11 9-19 19-19zm85-185c5 0 8 3 8 8v14c0 5-3 8-8 8s-8-3-8-8v-14c0-5 3-8 8-8zm-55 0c4 0 8 3 8 8v14c0 5-4 8-8 8-5 0-9-3-9-8v-14c0-5 4-8 9-8zm30 0c5 0 8 3 8 8v14c0 5-3 8-8 8s-8-3-8-8v-14c0-5 3-8 8-8zm-355 0h78c6 0 12 5 12 11v60c0 7-6 12-12 12h-78c-6 0-12-5-12-12v-60c0-6 6-11 12-11z"/><g id="_2572590617456"><rect width="102.67" height="28.06" x="51" y="162" class="fil1" rx="18" ry="14"/><rect width="86.54" height="28.06" x="167" y="162" class="fil1" rx="15" ry="14"/><rect width="84.03" height="28.06" x="267" y="162" class="fil1" rx="15" ry="14"/><rect width="84.03" height="28.06" x="365" y="162" class="fil1" rx="15" ry="14"/></g></g></svg>