<svg xmlns="http://www.w3.org/2000/svg" fill-rule="evenodd" clip-rule="evenodd" image-rendering="optimizeQuality" shape-rendering="geometricPrecision" text-rendering="geometricPrecision" viewBox="0 0 624 542"><defs><style>.fil0,.fil1{fill:#fff}.fil1{fill-rule:nonzero}</style></defs><g id="Capa_x0020_1"><path d="M425 394l73-196H0l73 196c7-2 15-3 23-3 25 0 47 12 60 30h185c14-18 36-30 61-30 8 0 16 1 23 3zM236 281v91c0 6-6 11-12 11-7 0-12-5-12-11v-91c0-7 5-12 12-12 6 0 12 5 12 12zm50 0v91c0 6-6 11-12 11-7 0-12-5-12-11v-91c0-7 5-12 12-12 6 0 12 5 12 12z" class="fil0"/><path d="M402 518c-14 0-28-5-37-15-9-9-15-22-15-37 0-14 6-27 15-36 9-10 23-16 37-16s27 6 37 16c9 9 15 22 15 36 0 15-6 28-15 37-10 10-23 15-37 15zm0 24c-42 0-76-34-76-76 0-41 34-75 76-75s75 34 75 75c0 42-33 76-75 76zM96 518c-15 0-28-5-37-15-9-9-15-22-15-37 0-14 6-27 15-36 9-10 22-16 37-16 14 0 27 6 37 15v1c9 9 15 22 15 36 0 15-6 28-15 37-10 10-23 15-37 15zm0 24c-42 0-76-34-76-76 0-41 34-75 76-75 21 0 40 8 53 22 14 14 22 33 22 53 0 21-8 40-22 54-13 13-32 22-53 22z" class="fil0"/><path d="M491 148l11-8 11 16-53 145-22-8 53-145zm0 0l3-8h8l-11 8zm133-8v24H502v-24h122zM338 455v23H164v-23z" class="fil1"/><path fill="#f00000" d="M228 15v181l-57-57c-3-3-6-4-10-4s-8 1-11 4l-9 9c-3 3-4 7-4 11s1 7 4 10l98 98c3 3 7 4 11 4s7-1 10-4l98-98c3-3 4-6 4-10s-1-8-4-11l-9-9c-3-3-7-4-11-4-3 0-7 1-10 4l-57 58V15c0-8-7-15-16-15h-12c-8 0-15 7-15 15z"/></g></svg>