<svg xmlns="http://www.w3.org/2000/svg" fill-rule="evenodd" clip-rule="evenodd" image-rendering="optimizeQuality" shape-rendering="geometricPrecision" text-rendering="geometricPrecision" viewBox="0 0 638 542"><defs><style>.fil1{fill:#f00000}.fil3{fill:#fff}</style></defs><g id="Capa_x0020_1"><path fill="none" d="M1 0h636v542H1z"/><path d="M412 469c0-2 1-3 1-5V271l-32-18-42 42c61 26 71 70 73 167v7zM444 478h67c8 0 14-6 14-14V271l-41 41-54-31v183c0 8 7 14 14 14zM558 478h66c8 0 14-6 14-14V167l-94 95v202c0 8 6 14 14 14z" class="fil1"/><path fill="#f00000" fill-rule="nonzero" d="M316 213l57-57 103 60L637 54v67L484 275l-103-60-70 70c-10-3-21-5-33-8 4-4 8-9 12-14 11-14 20-31 26-50z"/><path d="M412 462c-2-125-18-162-138-185l-68 215-68-215C20 300 3 337 0 458v23s30 61 206 61 206-61 206-61v-10-9zM353 260C392 139 355 0 206 0S20 139 59 260h70c-21-26-34-63-34-103 0-78 16-141 109-141s109 63 109 141c0 40-14 77-35 103h75z" class="fil3"/><path fill="#fff" fill-rule="nonzero" d="M204 286c26 0 50-14 68-37s29-56 29-92c0-37-4-71-18-94-13-22-38-36-79-36-42 0-66 14-80 36-14 23-18 57-18 94 0 36 12 69 30 92 17 23 41 37 68 37zm86-23c-22 29-52 46-86 46s-65-17-87-46c-21-27-34-65-34-106s4-78 21-106c18-29 48-47 100-47 51 0 81 18 99 47 17 28 22 65 22 106s-14 79-35 106z"/><path d="M299 100c4-6 6-14 6-21 0-35-15-63-101-63-87 0-101 28-101 63 0 7 2 15 6 21h106l6-13 6 13 14-29 14 29h44z" class="fil3"/></g></svg>