<svg xmlns="http://www.w3.org/2000/svg" fill-rule="evenodd" clip-rule="evenodd" image-rendering="optimizeQuality" shape-rendering="geometricPrecision" text-rendering="geometricPrecision" viewBox="0 0 635 542"><defs><style>.fil1{fill:#f00000}.fil2,.fil3{fill:#fff}.fil3{fill-rule:nonzero}</style></defs><g id="Capa_x0020_1"><path fill="none" d="M0 0h635v542H0z"/><path d="M0 458V54C0 24 24 0 54 0h313c30 0 54 24 54 54v289h-24V54c0-8-3-16-9-21-5-6-13-9-21-9H54c-8 0-16 3-21 9-6 5-9 13-9 21v404c0 8 3 16 9 21 5 6 13 9 21 9h307c-1 3-1 7-1 10 0 5 1 10 2 14H54c-30 0-54-24-54-54z" class="fil1"/><rect width="271.75" height="37.6" x="75" y="109" class="fil2" rx="49" ry="19"/><rect width="271.75" height="37.6" x="75" y="172" class="fil2" rx="49" ry="19"/><rect width="270.6" height="37.6" x="75" y="236" class="fil2" rx="48" ry="19"/><rect width="181.27" height="37.6" x="75" y="299" class="fil2" rx="32" ry="19"/><rect width="181.27" height="37.6" x="75" y="362" class="fil2" rx="32" ry="19"/><rect width="140.86" height="13.22" x="140" y="44" class="fil1" rx="25" ry="7"/><path d="M396 472l-48-129h287l-47 129H396zm75-81v53c0 3 3 6 6 6 4 0 7-3 7-6v-53c0-3-3-7-7-7-3 0-6 4-6 7zm28 0v53c0 3 3 6 7 6s7-3 7-6v-53c0-3-3-7-7-7s-7 4-7 7z" class="fil2"/><path d="M404 518c5 0 10-2 14-6 3-3 5-8 5-14 0-5-2-10-5-14-4-3-9-6-14-6-6 0-11 3-14 6h-1c-3 4-5 9-5 14 0 6 2 11 5 14h1c3 4 8 6 14 6zm0 24c24 0 43-20 43-44s-19-43-43-43-44 19-44 43 20 44 44 44zM580 518c6 0 11-2 14-6 4-3 6-8 6-14 0-5-2-10-6-14-3-3-8-6-14-6-5 0-10 3-14 6-4 4-6 9-6 14 0 6 2 11 6 14 4 4 9 6 14 6zm0 24c24 0 44-20 44-44s-20-43-44-43-43 19-43 43 19 44 43 44z" class="fil2"/><path d="M371 405l-28-76h-62v-24h79l33 92zM434 487h119v23H434z" class="fil3"/></g></svg>