<svg xmlns="http://www.w3.org/2000/svg" fill-rule="evenodd" clip-rule="evenodd" image-rendering="optimizeQuality" shape-rendering="geometricPrecision" text-rendering="geometricPrecision" viewBox="0 0 635 542"><defs><style>.fil1{fill:#f00000}.fil2{fill:#fff}</style></defs><g id="Capa_x0020_1"><path fill="none" d="M0 0h635v542H0z"/><path d="M0 456V54C0 24 25 0 54 0h312c30 0 54 24 54 54v90c-6-1-13-1-20-1h-4V54c0-9-3-16-9-22-5-5-13-8-21-8H54c-8 0-16 3-21 8-6 6-9 13-9 22v402c0 8 3 16 9 21 5 6 13 9 21 9h195v11s2 5 12 13H54c-29 0-54-24-54-54z" class="fil1"/><rect width="215" height="37.44" x="130" y="109" class="fil2" rx="38" ry="19"/><rect width="143.1" height="37.44" x="130" y="172" class="fil2" rx="26" ry="19"/><rect width="143.1" height="37.44" x="130" y="235" class="fil2" rx="26" ry="19"/><rect width="143.41" height="37.44" x="130" y="298" class="fil2" rx="26" ry="19"/><rect width="143.41" height="37.44" x="130" y="361" class="fil2" rx="26" ry="19"/><rect width="140.26" height="13.16" x="140" y="44" class="fil1" rx="25" ry="7"/><path d="M576 333c50 14 58 38 59 101v13s-13 27-83 34v-1c-1-34-3-59-11-78l35-69z" class="fil1"/><path d="M482 171c10-3 20-4 33-4 80 0 96 68 90 136-3 31 3 37 19 33-3 8-9 11-17 11-12-9-30-15-57-19 18-15 30-41 30-70 0-45-10-82-64-82-10 0-19 1-26 4-3-3-5-6-8-9zm64 160c-2 1-5 3-8 5h-1c3-2 6-3 9-5z" class="fil1"/><path fill="#f00000" fill-rule="nonzero" d="M516 352c-17 0-32-6-44-18h36c1-2 2-4 2-6 2 0 4 1 6 1 14 0 26-8 36-20 10-13 16-31 16-51 0-21-2-39-10-52-7-11-20-18-42-18-7 0-13 1-18 2-5-7-11-14-17-19 9-5 21-7 35-7 32 0 51 12 62 30 11 17 13 40 13 64 0 26-8 49-21 66s-33 28-54 28z"/><path d="M489 178c7-1 16-2 27-2 50 0 59 17 59 37 0 4-1 9-3 12h-59c-4-17-13-34-24-47z" class="fil1"/><path d="M249 483c1-92 13-119 101-136l50 158 51-158c87 17 99 44 101 133v17s-22 45-152 45c-129 0-151-45-151-45v-7-7zM292 334c-28-88-2-191 108-191s137 103 108 191h-51c15-19 25-46 25-76 0-57-12-103-80-103-69 0-80 46-80 103 0 30 10 57 25 76h-55z" class="fil2"/><path fill="#fff" fill-rule="nonzero" d="M402 374c-26 0-49-14-66-35-16-21-26-49-26-81 0-30 3-58 16-79 14-23 37-36 76-36s62 13 76 36c13 21 16 49 16 79 0 32-10 60-26 81-17 21-40 35-66 35zm-48-50c13 16 30 26 48 26s35-10 47-26c13-16 21-40 21-66 0-27-2-50-12-67-10-15-27-25-56-25-30 0-46 10-56 25-10 17-13 40-13 67 0 26 8 50 21 66z"/><path d="M332 217c-3-5-5-10-5-16 0-26 11-46 75-46s74 20 74 46c0 6-1 11-4 16h-78l-5-10-4 9-10-20-11 21h-32z" class="fil2"/><rect width="36.54" height="37.44" x="73" y="172" class="fil2" rx="7" ry="19"/><rect width="36.54" height="37.44" x="73" y="235" class="fil2" rx="7" ry="19"/><rect width="36.62" height="37.44" x="73" y="298" class="fil2" rx="7" ry="19"/><rect width="36.62" height="37.44" x="73" y="361" class="fil2" rx="7" ry="19"/><rect width="36.54" height="37.44" x="73" y="109" class="fil2" rx="7" ry="19"/></g></svg>