<svg xmlns="http://www.w3.org/2000/svg" fill-rule="evenodd" clip-rule="evenodd" image-rendering="optimizeQuality" shape-rendering="geometricPrecision" text-rendering="geometricPrecision" viewBox="0 0 638 542"><defs><style>.fil1{fill:#f00000}.fil3{fill:#fff}.fil2{fill:#f00000;fill-rule:nonzero}</style></defs><g id="Capa_x0020_1"><path fill="none" d="M2 0h635v542H2z"/><path d="M127 351l-47-92C12 278 2 310 0 395v18s18 37 113 46v-1c1-47 4-81 14-107z" class="fil1"/><path d="M208 39c-13-4-28-7-45-7C54 32 32 125 41 217c4 42-5 51-27 45 5 11 13 15 23 15 17-12 42-20 78-26-24-20-40-55-40-94 0-62 13-112 86-112 14 0 26 2 36 5 3-4 7-8 11-11zm-87 216c2 2 6 5 11 7h1c-4-2-9-4-12-7z" class="fil1"/><path d="M161 256h9l2 4h43c-15 13-34 20-54 20-27 0-52-14-70-37-17-22-28-53-28-86s4-63 17-86c15-23 40-38 81-38 18 0 33 3 45 8h-1v1h-1l-2 2v1h-1l-2 2v1h-1v1l-1 1-1 1-1 1v1h-1l-2 2v2h-1l-1 2-1 1c-8-2-17-3-28-3-32 0-50 10-60 27-11 18-14 44-14 73 0 28 9 53 23 71 13 18 31 28 51 28z" class="fil2"/><path d="M199 48c-10-2-23-3-38-3-68 0-80 22-80 50 0 6 2 12 5 17h79c7-24 18-46 34-64zm13 48c1-2 1-4 2-7-1 3-1 5-2 7zM638 398c-1-101-15-130-115-148l-1 1c-3 2-11 10-27 15 1 2 2 6 2 9 0 8-5 16-12 19l8 29c25 28 30 69 31 136 96-10 114-46 114-46v-8-7zm-174-98l1-6c-7-3-11-11-11-19 0-3 0-7 2-9-17-5-25-13-28-15v-1c-13 2-25 5-35 7l-6 20c33 6 58 13 77 23z" class="fil1"/><path d="M475 256c20 0 38-10 52-28s23-43 23-71c0-29-3-55-14-73-10-17-29-27-61-27-10 0-19 1-27 3-5-7-10-14-17-20 12-4 27-7 44-7 42 0 66 15 81 38 14 23 17 53 17 86s-10 64-27 86c-18 23-43 37-71 37-20 0-38-7-54-20h45l1-4h8z" class="fil2"/><path d="M525 462c-2-125-18-162-138-185l-68 215-69-215c-118 23-135 60-137 181v23s30 61 206 61c175 0 206-61 206-61v-10-9zM466 260C504 139 468 0 319 0S133 139 172 260h70c-21-26-35-63-35-103 0-78 16-141 109-141s109 63 109 141c0 40-13 77-34 103h75z" class="fil3"/><path fill="#fff" fill-rule="nonzero" d="M316 286c27 0 51-14 68-37 18-23 30-56 30-92 0-37-4-71-18-94-14-22-38-36-80-36-41 0-65 14-79 36-14 23-18 57-18 94 0 36 11 69 30 92 17 23 41 37 67 37zm87-23c-22 29-53 46-87 46s-64-17-86-46c-21-27-35-65-35-106s5-78 22-106c18-29 48-47 99-47 52 0 82 18 100 47 17 28 21 65 21 106s-13 79-34 106z"/><path d="M412 100c3-6 6-14 6-21 0-35-15-63-102-63-86 0-101 28-101 63 0 7 2 15 6 21h106l7-13 6 13 14-29 14 29h44z" class="fil3"/></g></svg>