<svg xmlns="http://www.w3.org/2000/svg" fill-rule="evenodd" clip-rule="evenodd" image-rendering="optimizeQuality" shape-rendering="geometricPrecision" text-rendering="geometricPrecision" viewBox="0 0 638 542"><defs><style>.fil2{fill:#fff}.fil1,.fil3{fill:#f00000;fill-rule:nonzero}.fil3{fill:#fff}</style></defs><g id="Capa_x0020_1"><path fill="none" d="M1 0h636v542H1z"/><path d="M378 74c-16 0-29-12-29-28s13-29 29-29c111 0 202 90 202 202v46l8-9c12-11 30-11 41 0 12 12 12 30 0 41l-57 58c-12 11-30 11-41 0l-58-58c-12-11-12-29 0-41 11-11 29-11 41 0l8 9v-46c0-80-65-145-144-145zm0 0zM269 450h2c-4 8-6 18-6 28 0 11 3 22 9 31-2 1-3 1-5 1-115 0-209-94-209-210v-47l-9 9c-12 11-31 11-42 0-12-12-12-31 0-43l60-59c11-12 30-12 42 0l60 59c11 12 11 31 0 43-12 11-31 11-43 0l-8-9v47c0 83 67 150 149 150z" class="fil1"/><circle cx="70" cy="63" r="63" class="fil2"/><circle cx="241" cy="63" r="63" class="fil2"/><path d="M329 518c12 0 22-4 29-12 8-7 12-17 12-28 0-12-4-22-12-29-7-8-17-12-29-12-11 0-21 4-28 12-8 7-12 17-12 29 0 11 4 21 12 28 7 8 17 12 28 12zm0-105c-35 0-64 29-64 65 0 35 29 64 64 64 36 0 65-29 65-64 0-36-29-65-65-65zM573 518c12 0 22-4 29-12 8-7 12-17 12-28 0-12-4-22-12-29-7-8-17-12-29-12-11 0-21 4-28 12-8 7-12 17-12 29 0 11 4 21 12 28 7 8 17 12 28 12zm0-105c-35 0-64 29-64 65 0 35 29 64 64 64 36 0 65-29 65-64 0-36-29-65-65-65z" class="fil2"/><path d="M340 483c-4 6-11 8-16 5-6-4-8-11-5-16l21 11zm86-149l-86 149-21-11 86-150 21 12zm-21-12c4-5 11-7 17-4 5 3 7 10 4 16l-21-12z" class="fil3"/><path d="M476 469c5 4 5 12 1 17-5 4-12 5-17 0l16-17zm-89-85l89 85-16 17-89-84 8-21 8 3zm-16 18c-5-5-5-12-1-17 5-5 12-5 17-1l-16 18zm141 3H379v-24h133l10 5-10 19zm0-24c7 0 12 5 12 12 0 6-5 12-12 12v-24zm52 103l-61-84 19-14 61 85-10 18-9-5zm19-13c4 5 3 12-3 16-5 4-12 3-16-3l19-13zm-115-5h105v23H468l-10-17 10-6zm0 23c-6 0-11-5-11-11 0-7 5-12 11-12v23zm55-91l-44 85-21-11 44-84 21 10zm-21-10c3-6 10-9 16-6 5 3 8 11 5 16l-21-10z" class="fil3"/></g></svg>