<svg xmlns="http://www.w3.org/2000/svg" fill-rule="evenodd" clip-rule="evenodd" image-rendering="optimizeQuality" shape-rendering="geometricPrecision" text-rendering="geometricPrecision" viewBox="0 0 635 542"><defs><style>.fil1{fill:#fff}</style></defs><g id="Capa_x0020_1"><path fill="#f00000" d="M230 327V58c0-28 23-51 51-51h295c28 0 50 23 50 51v381c0 27-22 50-50 50H407v-23h169a27.32 27.32 0 0 0 27-27V58c0-8-3-15-8-20s-12-8-19-8H281c-8 0-15 3-20 8s-8 12-8 20v269h-23z"/><path d="M283 129h290v164c0 7-6 13-13 13H296c-7 0-13-6-13-13V129zm267 23H306v131h244V152zM454 365h113c4 0 6 2 6 5v1c0 3-2 5-6 5H454c-3 0-6-2-6-5v-1c0-3 3-5 6-5zM454 400h113c4 0 6 3 6 6s-2 6-6 6H454c-3 0-6-3-6-6s3-6 6-6z" class="fil1"/><path d="M350 292V141c0-4 3-7 7-7s7 3 7 7v151c0 4-3 7-7 7s-7-3-7-7zM421 292V141c0-4 3-7 7-7s7 3 7 7v151c0 4-3 7-7 7s-7-3-7-7zM492 292V141c0-4 3-7 7-7s8 3 8 7v151c0 4-4 7-8 7s-7-3-7-7z" class="fil1"/><path d="M299 183h259c4 0 7 3 7 7s-3 7-7 7H299c-4 0-8-3-8-7s4-7 8-7zM289 84h69c4 0 6 3 6 6 0 4-2 6-6 6h-69c-3 0-6-2-6-6 0-3 3-6 6-6zM395 535H20c-6 0-11-5-11-12V338c0-6 5-11 11-11h375c7 0 12 5 12 11v185c0 7-5 12-12 12zM217 423h-18c-7 0-12-6-12-12 0-7 5-12 12-12h31c5 0 8-4 8-8s-3-8-8-8h-14v-11c0-4-4-8-8-8-5 0-8 4-8 8v11h-1c-16 0-28 12-28 28 0 15 12 27 28 27h18c6 0 12 6 12 12 0 7-6 12-12 12h-33c-4 0-8 4-8 8s4 8 8 8h16v11c0 5 3 8 8 8 4 0 8-3 8-8v-11h1c15 0 27-13 27-28s-12-27-27-27zm70 0h39c4 0 7 3 7 8 0 4-3 7-7 7h-39c-4 0-8-3-8-7 0-5 4-8 8-8zm-197 0h38c5 0 8 3 8 8 0 4-3 7-8 7H90c-4 0-8-3-8-7 0-5 4-8 8-8zM86 272h117c8 0 15 7 15 15s-7 15-15 15H86c-8 0-15-7-15-15s7-15 15-15zM86 219h117c8 0 15 7 15 15s-7 15-15 15H86c-8 0-15-7-15-15s7-15 15-15zM86 166h117c8 0 15 7 15 15s-7 15-15 15H86c-8 0-15-7-15-15s7-15 15-15z" class="fil1"/></g></svg>