<svg xmlns="http://www.w3.org/2000/svg" fill-rule="evenodd" clip-rule="evenodd" image-rendering="optimizeQuality" shape-rendering="geometricPrecision" text-rendering="geometricPrecision" viewBox="0 0 635 542"><defs><style>.fil1,.fil2{fill:#fff}.fil2{fill-rule:nonzero}</style></defs><g id="Capa_x0020_1"><path fill="none" d="M0 0h635v542H0z"/><path d="M431 395l72-197H6l73 197c7-3 15-4 23-4 25 0 47 12 60 30h185c14-18 36-30 61-30 8 0 15 1 23 4zM242 281v91c0 6-6 12-12 12-7 0-12-6-12-12v-91c0-6 5-12 12-12 6 0 12 6 12 12zm50 0v91c0 6-6 12-12 12-7 0-12-6-12-12v-91c0-6 5-12 12-12 6 0 12 6 12 12z" class="fil1"/><path d="M408 518c-15 0-28-5-37-15-10-9-15-22-15-37 0-14 5-27 15-36l-17-17c14-13 33-22 54-22 41 0 75 34 75 75 0 42-34 76-75 76-42 0-76-34-76-76 0-20 9-39 22-53l17 17c9-10 22-15 37-15 14 0 27 5 36 15 10 9 15 22 15 36 0 15-5 28-15 37-9 10-22 15-36 15zm36-88zM102 518c-14 0-27-5-37-15-9-9-15-22-15-37 0-14 6-27 15-36 10-10 23-15 37-15s27 5 37 15c9 9 15 22 15 36 0 15-6 28-15 37-10 10-23 15-37 15zm0 24c-21 0-40-9-53-22-14-14-22-33-22-54 0-41 33-75 75-75s75 34 75 75c0 21-8 40-22 54-13 13-32 22-53 22zm37-39z" class="fil1"/><path d="M496 148l11-7 11 15-52 145-22-8 52-145zm0 0l3-7h8l-11 7zm133-7v23H507v-23h122zM344 455v23H170v-23z" class="fil2"/><path fill="#f00000" d="M446 34L418 6c-4-4-9-6-14-6-6 0-11 2-14 6L253 143l-62-62c-3-4-8-6-14-6-5 0-10 2-14 6l-28 29c-4 4-6 8-6 14 0 5 2 10 6 14l75 76 29 28c3 4 8 6 14 6 5 0 10-2 14-6l28-28L446 63c4-4 6-9 6-15 0-5-2-10-6-14z"/></g></svg>