<svg xmlns="http://www.w3.org/2000/svg" fill-rule="evenodd" clip-rule="evenodd" image-rendering="optimizeQuality" shape-rendering="geometricPrecision" text-rendering="geometricPrecision" viewBox="0 0 635 542"><defs><style>.fil2{fill:#f00000}.fil1{fill:#fff}</style></defs><g id="Capa_x0020_1"><path fill="none" d="M0 0h635v542H0z"/><path d="M147 0h344c8 0 14 6 14 14v157c0 8-6 14-14 14H147c-7 0-14-6-14-14V14c0-8 7-14 14-14zm334 24H157v137h324V24z" class="fil1"/><path d="M31 146h574c16 0 30 14 30 31v205c0 17-14 30-30 30H505V293H133v119H31c-17 0-31-13-31-30V177c0-17 14-31 31-31zm95 47c11 0 19 9 19 19 0 11-8 20-19 20s-19-9-19-20c0-10 8-19 19-19zm-58 0c10 0 19 9 19 19 0 11-9 20-19 20-11 0-20-9-20-20 0-10 9-19 20-19z" class="fil1"/><path d="M133 293h372v230c0 10-8 19-19 19H152c-10 0-19-9-19-19V293zm348 23H157v202h324V316z" class="fil2"/><path d="M187 293h264v89c0 4-3 7-7 7H194c-4 0-7-3-7-7v-89zm240 23H211v50h216v-50z" class="fil2"/><rect width="140.02" height="13.14" x="307" y="419" class="fil2" rx="25" ry="7"/><rect width="140.02" height="13.14" x="307" y="458" class="fil2" rx="25" ry="7"/><rect width="222.25" height="79.38" class="fil2" rx="40" ry="40" transform="matrix(0 -.4191 .1655 0 247.83 385.67)"/><rect width="222.25" height="79.38" class="fil2" rx="40" ry="40" transform="matrix(0 -.4191 .1655 0 312.6 385.67)"/><rect width="222.25" height="79.38" class="fil2" rx="40" ry="40" transform="matrix(0 -.4191 .1655 0 377.38 385.67)"/></g></svg>