<svg xmlns="http://www.w3.org/2000/svg" fill-rule="evenodd" clip-rule="evenodd" image-rendering="optimizeQuality" shape-rendering="geometricPrecision" text-rendering="geometricPrecision" viewBox="0 0 635 542"><path fill="none" d="M0 0h635v542H0z"/><path fill="#f00000" d="M30 482h576c16 0 29 14 29 30s-13 30-29 30H30c-17 0-30-14-30-30s13-30 30-30z"/><path fill="#fff" d="M237 186h161v259H237V186zM94 0L29 17V0h65zM29 34L155 0h36v14L29 57V34zm0 39l162-43v23L29 97V73zm0 40l162-43v23L29 136v-23zm0 40l162-44v24L29 176v-23zm0 39l162-43v23L29 216v-24zm0 40l162-43v23L29 255v-23zm0 40l162-44v24L29 295v-23zm0 39l162-43v23L29 335v-24zm0 40l162-43v23L29 374v-23zm0 40l162-44v24L29 414v-23zm0 39l162-43v23L62 445H29v-15zm93 15l69-18v18h-69zM584 71l-139 38V71h139zm-139 64l161-43v38l-161 43v-38zm0 65l161-44v38l-161 44v-38zm0 64l161-43v38l-161 43v-38zm0 64l161-43v38l-161 43v-38zm0 65l161-43v38l-161 43v-38zm45 52l116-31v31H490z"/></svg>