<?xml version="1.0" encoding="utf-8"?>
<!-- Generator: Adobe Illustrator 16.0.0, SVG Export Plug-In . SVG Version: 6.00 Build 0)  -->
<!DOCTYPE svg PUBLIC "-//W3C//DTD SVG 1.1//EN" "http://www.w3.org/Graphics/SVG/1.1/DTD/svg11.dtd">
<svg version="1.1" id="Capa_1" xmlns="http://www.w3.org/2000/svg" xmlns:xlink="http://www.w3.org/1999/xlink" x="0px" y="0px"
	 width="186.335px" height="1137.435px" viewBox="0 0 186.335 1137.435" enable-background="new 0 0 186.335 1137.435"
	 xml:space="preserve">
<g>
	<rect x="15.883" y="8.278" fill="#ECECEC" fill-opacity="0" width="65.889" height="63.711"/>
	<path fill="#DC007A" d="M28.715,47.721c-0.187-0.138-0.322-0.242-0.465-0.339c-2.359-1.57-4.717-3.146-7.081-4.71
		c-0.446-0.296-0.808-0.646-0.943-1.181c-0.205-0.806,0.063-1.451,0.694-1.953c1.118-0.893,2.246-1.77,3.37-2.646
		c1.556-1.225,3.112-2.443,4.667-3.666c0.076-0.063,0.142-0.133,0.244-0.229c-0.333-0.285-0.644-0.559-0.96-0.82
		c-2.828-2.375-5.655-4.752-8.487-7.121c-0.467-0.394-0.873-0.813-0.92-1.458c-0.058-0.775,0.263-1.361,0.918-1.771
		c1.761-1.103,3.522-2.2,5.284-3.303c3.747-2.338,7.495-4.677,11.244-7.014c0.869-0.542,1.607-0.501,2.398,0.139
		c3.043,2.458,6.083,4.922,9.125,7.385c0.248,0.198,0.508,0.388,0.741,0.604c0.191,0.18,0.339,0.17,0.536,0.009
		c0.951-0.779,1.911-1.553,2.868-2.326c2.351-1.897,4.698-3.804,7.052-5.695c0.755-0.604,1.488-0.647,2.287-0.15
		c5.511,3.438,11.02,6.873,16.527,10.313c0.904,0.563,1.248,1.478,0.846,2.333c-0.146,0.313-0.405,0.604-0.674,0.835
		c-1.299,1.116-2.619,2.213-3.934,3.313c-1.811,1.521-3.619,3.037-5.429,4.56c-0.058,0.049-0.103,0.108-0.192,0.208
		c0.42,0.337,0.826,0.665,1.236,0.986c2.321,1.83,4.646,3.656,6.967,5.488c1.115,0.883,1.057,2.309-0.129,3.103
		c-2.273,1.521-4.549,3.042-6.832,4.554c-0.281,0.188-0.448,0.363-0.32,0.722c0.038,0.105,0.017,0.237,0.017,0.357
		c0,2.571,0.003,5.146-0.003,7.72c-0.001,0.341-0.014,0.685-0.068,1.019c-0.102,0.604-0.474,1.021-0.997,1.315
		c-2.414,1.38-4.825,2.765-7.236,4.146c-3.689,2.115-7.382,4.226-11.061,6.354c-0.818,0.477-1.56,0.467-2.382-0.003
		c-6.101-3.477-12.209-6.937-18.326-10.38c-0.847-0.479-1.25-1.123-1.237-2.104c0.029-2.109,0.014-4.225,0.006-6.333
		C28.062,49.167,27.992,48.351,28.715,47.721z M62.095,33.043c-0.148-0.11-0.229-0.186-0.319-0.239
		c-4.227-2.75-8.456-5.498-12.678-8.259c-0.23-0.147-0.386-0.111-0.59,0.021c-4.215,2.749-8.435,5.493-12.65,8.239
		c-0.094,0.063-0.177,0.14-0.3,0.234c0.146,0.102,0.243,0.167,0.343,0.229c4.198,2.632,8.399,5.261,12.593,7.897
		c0.241,0.148,0.412,0.147,0.651-0.001c3.906-2.457,7.818-4.901,11.729-7.354C61.261,33.572,61.648,33.326,62.095,33.043z
		 M51.94,22.027c0.136,0.1,0.22,0.162,0.309,0.223c4.252,2.771,8.507,5.536,12.753,8.313c0.279,0.186,0.455,0.175,0.708-0.039
		c2.626-2.221,5.262-4.43,7.897-6.642c0.082-0.068,0.195-0.104,0.342-0.187c-0.215-0.15-0.299-0.221-0.391-0.273
		c-4.304-2.688-8.608-5.375-12.91-8.065c-0.199-0.125-0.336-0.125-0.521,0.022c-2.405,1.953-4.816,3.896-7.225,5.85
		C52.591,21.482,52.284,21.742,51.94,22.027z M23.701,23.656c0.171,0.121,0.284,0.188,0.384,0.273
		c0.507,0.421,1.011,0.846,1.516,1.271c2.12,1.778,4.242,3.561,6.355,5.349c0.236,0.199,0.398,0.193,0.653,0.026
		c4.082-2.671,8.171-5.325,12.258-7.984c0.263-0.172,0.523-0.349,0.823-0.548c-0.133-0.123-0.222-0.216-0.321-0.296
		c-2.588-2.096-5.18-4.185-7.76-6.284c-0.255-0.208-0.432-0.229-0.715-0.05c-3.739,2.351-7.487,4.685-11.232,7.021
		C25.048,22.815,24.436,23.198,23.701,23.656z M45.586,43.688c-0.122-0.094-0.2-0.167-0.289-0.224c-4.254-2.666-8.51-5.327-12.76-8
		c-0.223-0.143-0.368-0.139-0.577,0.024c-1.921,1.521-3.851,3.031-5.777,4.548c-0.35,0.271-0.695,0.557-1.071,0.854
		c0.146,0.105,0.238,0.184,0.336,0.249c4.07,2.713,8.143,5.422,12.205,8.146c0.271,0.181,0.441,0.157,0.688-0.029
		c1.877-1.45,3.765-2.895,5.647-4.334C44.51,44.521,45.029,44.119,45.586,43.688z M72.462,40.901
		c-0.112-0.104-0.192-0.188-0.284-0.264c-2.164-1.709-4.331-3.414-6.492-5.127c-0.208-0.165-0.365-0.192-0.604-0.042
		c-4.23,2.659-8.467,5.313-12.701,7.97c-0.105,0.063-0.198,0.147-0.322,0.245c0.137,0.118,0.232,0.208,0.335,0.287
		c2.3,1.768,4.604,3.527,6.897,5.306c0.219,0.169,0.364,0.188,0.6,0.03c4.08-2.729,8.167-5.449,12.251-8.174
		C72.24,41.069,72.332,40.996,72.462,40.901z M50.551,47.207c0,5.688,0,11.313,0,17.001c0.171-0.085,0.289-0.14,0.398-0.198
		c1.204-0.688,2.406-1.368,3.61-2.056c3.581-2.037,7.161-4.076,10.748-6.104c0.276-0.157,0.375-0.33,0.372-0.646
		c-0.016-1.641-0.007-3.273-0.008-4.915c-0.001-0.123-0.016-0.245-0.027-0.422c-0.178,0.105-0.301,0.177-0.417,0.255
		c-1.508,1.006-3.015,2.018-4.523,3.021c-0.912,0.604-1.633,0.563-2.502-0.107c-2.443-1.889-4.896-3.767-7.345-5.646
		C50.777,47.327,50.682,47.284,50.551,47.207z M46.842,47.372c-0.136,0.087-0.229,0.14-0.312,0.197
		c-2.393,1.826-4.787,3.653-7.177,5.483c-0.864,0.66-1.564,0.688-2.472,0.083c-1.582-1.058-3.164-2.11-4.747-3.163
		c-0.111-0.073-0.235-0.125-0.402-0.212c-0.011,0.185-0.024,0.303-0.024,0.421c-0.001,1.682,0.006,3.361-0.007,5.046
		c-0.002,0.294,0.104,0.451,0.357,0.592c4.803,2.688,9.601,5.386,14.4,8.076c0.11,0.063,0.228,0.105,0.383,0.184
		C46.842,58.493,46.842,52.965,46.842,47.372z"/>
</g>
<g>
	<rect x="15.883" y="81.274" fill="#ECECEC" fill-opacity="0" width="65.889" height="63.711"/>
	<g>
		<path fill="#DC007A" d="M37.608,99.928c6.553,0,13.106,0,19.66,0c6.583,0,13.166,0,19.749,0c0.905,0,1.785-0.688,1.811-1.834
			c0.021-0.986-0.833-1.807-1.809-1.808c-13.157-0.001-26.313-0.001-39.47,0.004c-0.203,0-0.417,0.041-0.607,0.109
			c-0.833,0.313-1.337,1.188-1.174,2.018C35.947,99.319,36.687,99.928,37.608,99.928z"/>
		<path fill="#DC007A" d="M76.901,111.304c-2.412,0-4.825,0-7.238,0c-10.674,0-21.348-0.001-32.021,0.004
			c-0.233,0-0.479,0.032-0.696,0.111c-0.824,0.302-1.324,1.158-1.183,1.98c0.155,0.902,0.916,1.541,1.844,1.541
			c6.543,0,13.086,0,19.63,0c4.915,0,9.83,0,14.745,0c1.688,0,3.376,0.013,5.063-0.004c0.979-0.009,1.813-0.797,1.772-1.888
			C78.776,112.002,77.966,111.304,76.901,111.304z"/>
		<path fill="#DC007A" d="M76.962,126.322c-2.115-0.001-4.23,0-6.345,0c-10.992,0-21.983-0.001-32.976,0.007
			c-0.233,0-0.479,0.03-0.697,0.108c-0.835,0.308-1.337,1.186-1.178,2.016c0.173,0.896,0.915,1.512,1.836,1.512
			c6.554,0,13.107,0,19.66,0c4.717,0,9.434,0,14.148,0c1.877,0,3.754,0.007,5.631-0.003c0.893-0.004,1.764-0.693,1.782-1.829
			C78.845,127.112,77.991,126.323,76.962,126.322z"/>
		<path fill="#DC007A" d="M24.666,94.434c-0.282-0.044-0.571-0.054-0.857-0.051c-1.12,0.011-2.241-0.003-3.358,0.062
			c-0.836,0.05-1.463,0.709-1.564,1.539c-0.037,0.306-0.055,0.61-0.052,0.917c0.011,1.119,0,2.24,0.063,3.356
			c0.043,0.781,0.738,1.458,1.523,1.511c0.709,0.048,1.425,0.011,2.137,0.011c0,0.021,0,0.036,0,0.057
			c0.585,0,1.171,0.006,1.756-0.001c1.127-0.015,1.947-0.804,1.964-1.922c0.018-1.201,0.016-2.4,0-3.604
			C26.264,95.309,25.636,94.59,24.666,94.434z"/>
		<path fill="#DC007A" d="M24.666,109.452c-0.282-0.044-0.572-0.056-0.857-0.053c-1.12,0.013-2.241-0.003-3.358,0.063
			c-0.837,0.049-1.464,0.709-1.564,1.538c-0.037,0.305-0.055,0.608-0.052,0.917c0.011,1.12,0,2.241,0.063,3.355
			c0.043,0.781,0.738,1.458,1.523,1.513c0.719,0.048,1.444,0.01,2.167,0.01c0,0.02,0,0.036,0,0.056c0.576,0,1.151,0.005,1.727-0.001
			c1.127-0.014,1.947-0.801,1.964-1.921c0.02-1.201,0.016-2.401,0-3.604C26.264,110.328,25.636,109.604,24.666,109.452z"/>
		<path fill="#DC007A" d="M24.323,124.419c-1.161-0.01-2.323-0.015-3.482,0c-1.219,0.015-2.002,0.813-2.009,2.032
			c-0.005,1.131-0.006,2.263,0,3.396c0.008,1.205,0.785,2.001,1.99,2.021c1.171,0.02,2.342,0.013,3.513,0.002
			c1.011-0.014,1.771-0.631,1.885-1.622c0.078-0.688,0.015-1.387,0.015-2.077c0.016,0,0.031,0,0.047,0
			c0-0.596,0.006-1.189-0.001-1.784C26.266,125.243,25.459,124.428,24.323,124.419z"/>
	</g>
</g>
<g>
	<rect x="15.883" y="154.27" fill="#ECECEC" fill-opacity="0" width="65.889" height="63.711"/>
	<path fill="#DC007A" d="M48.828,166.463c8.143,0,16.283-0.009,24.425,0.007c2.796,0.005,5.03,2.05,5.461,4.602
		c0.065,0.396,0.106,0.803,0.106,1.2c0.007,9.275,0.006,18.559,0.005,27.832c0,2.688-1.745,4.909-4.353,5.533
		c-0.389,0.093-0.795,0.147-1.195,0.147c-16.301,0.007-32.604,0.015-48.906-0.001c-2.732-0.005-5.048-1.991-5.479-4.796
		c-0.051-0.328-0.063-0.67-0.063-1.005c-0.003-9.249-0.003-18.497-0.002-27.745c0-1.688,0.581-3.143,1.83-4.297
		c0.879-0.813,1.92-1.3,3.117-1.422c0.381-0.039,0.766-0.057,1.149-0.057C32.892,166.463,40.859,166.463,48.828,166.463z
		 M48.814,202.141c8.045,0,16.089,0.001,24.134-0.004c0.267,0,0.541-0.024,0.796-0.096c0.927-0.25,1.434-0.994,1.434-2.106
		c0.004-5.438,0-10.873,0.008-16.313c0-0.274-0.084-0.361-0.363-0.359c-1.674,0.012-3.349,0.006-5.021,0.006
		c-15.638,0-31.274,0-46.912,0c-0.407,0-0.411,0-0.411,0.357c-0.001,5.445-0.003,10.896,0.003,16.342
		c0,0.421,0.055,0.845,0.288,1.218c0.436,0.699,1.094,0.956,1.884,0.956C32.706,202.141,40.76,202.141,48.814,202.141z
		 M48.832,175.868c8.632,0,17.263,0,25.894,0c0.453,0,0.453,0,0.453-0.441c0-1.021,0.006-2.04-0.004-3.063
		c-0.003-0.268-0.023-0.541-0.089-0.797c-0.233-0.917-0.998-1.457-2.032-1.457c-16.155,0-32.312,0-48.466,0.003
		c-0.228,0-0.461,0.032-0.681,0.094c-0.883,0.233-1.406,0.948-1.426,1.998c-0.022,1.125-0.002,2.251-0.007,3.377
		c-0.001,0.211,0.085,0.302,0.293,0.288c0.105-0.01,0.211-0.001,0.317-0.001C31.667,175.868,40.25,175.868,48.832,175.868z"/>
</g>
<g>
	<rect x="15.883" y="227.266" fill="#ECECEC" fill-opacity="0" width="65.889" height="63.711"/>
	<g>
		<path fill="#DC007A" d="M47.27,237.795c-0.247,0.392-0.465,0.739-0.687,1.085c-0.876,1.357-1.747,2.725-2.633,4.078
			c-0.248,0.377-0.354,0.776-0.293,1.219c0.027,0.188,0.077,0.406,0.196,0.538c0.838,0.93,2.041,1.139,2.797-0.064
			c1.937-3.083,3.919-6.136,5.872-9.208c0.622-0.979,0.451-1.654-0.575-2.189c-2.469-1.289-4.95-2.549-7.428-3.817
			c-0.74-0.379-1.492-0.739-2.219-1.144c-0.875-0.482-1.857-0.021-2.135,0.814c-0.328,0.986-0.13,1.604,0.808,2.076
			c1.669,0.845,3.339,1.689,5.008,2.538c0.109,0.058,0.214,0.123,0.32,0.183c-0.002,0.033-0.005,0.063-0.007,0.1
			c-0.34,0.053-0.68,0.104-1.021,0.146c-4.692,0.579-8.969,2.245-12.794,5.013c-5.524,3.991-9.175,9.302-10.922,15.898
			c-0.452,1.708-0.75,3.443-0.81,5.216c-0.033,1.018-0.102,2.034-0.051,3.046c0.165,3.288,0.829,6.479,2.142,9.503
			c3.318,7.646,8.898,12.905,16.736,15.759c1.896,0.688,3.853,1.127,5.85,1.357c1.144,0.137,2.301,0.229,3.45,0.211
			c5.374-0.069,10.37-1.479,14.92-4.363c4.449-2.821,7.863-6.596,10.228-11.302c1.311-2.604,2.177-5.357,2.61-8.25
			c0.251-1.67,0.392-3.349,0.328-5.031c-0.146-3.75-0.934-7.356-2.489-10.788c-1.57-3.458-3.767-6.46-6.552-9.029
			c-0.695-0.646-1.437-1.236-2.184-1.818c-0.604-0.47-1.285-0.549-1.986-0.201c-0.69,0.34-1.031,0.937-1.048,1.672
			c-0.017,0.646,0.313,1.149,0.813,1.571c0.961,0.813,1.945,1.609,2.824,2.508c3.349,3.416,5.468,7.492,6.392,12.188
			c0.272,1.383,0.396,2.776,0.429,4.19c0.122,5.062-1.202,9.711-4.013,13.898c-3.724,5.552-8.886,9.039-15.428,10.467
			c-2.114,0.461-4.258,0.598-6.404,0.46c-4.948-0.31-9.424-1.958-13.344-5.009c-4.792-3.729-7.825-8.575-9.051-14.535
			c-0.388-1.884-0.557-3.792-0.465-5.71c0.196-4.155,1.334-8.041,3.5-11.605c2.149-3.536,5.006-6.361,8.574-8.46
			c2.657-1.563,5.509-2.586,8.564-3.022c0.615-0.089,1.234-0.143,1.854-0.205C47.032,237.762,47.12,237.784,47.27,237.795z"/>
		<g>
			<circle fill="#DC007A" cx="52.973" cy="255.068" r="5.596"/>
			<g>
				<circle fill="#DC007A" cx="39.736" cy="263.605" r="5.595"/>
				<circle fill="#DC007A" cx="55.257" cy="270.652" r="5.595"/>
			</g>
		</g>
	</g>
</g>
<g>
	<rect x="15.883" y="373.259" fill="#ECECEC" fill-opacity="0" width="65.889" height="63.712"/>
	<g>
		<path fill="#DC007A" d="M20.104,392.781c0.119,0.069,0.242,0.14,0.364,0.203c1.79,0.978,3.58,1.946,5.369,2.925
			c7.291,3.972,14.585,7.938,21.869,11.921c0.779,0.426,1.48,0.433,2.258,0.01c6.395-3.462,12.798-6.906,19.199-10.354
			c2.844-1.529,5.688-3.063,8.534-4.594c0.697-0.375,1.146-0.922,1.129-1.729c-0.017-0.813-0.479-1.335-1.188-1.691
			c-2.834-1.432-5.659-2.871-8.488-4.311c-3.581-1.818-7.163-3.644-10.745-5.457c-2.777-1.41-5.553-2.822-8.335-4.228
			c-0.282-0.143-0.602-0.206-0.945-0.32c-0.328,0.111-0.667,0.189-0.97,0.346c-2.868,1.435-5.729,2.88-8.593,4.316
			c-5.288,2.654-10.576,5.313-15.864,7.97c-1.181,0.593-2.373,1.161-3.537,1.783C18.822,390.28,18.805,392.003,20.104,392.781z
			 M25.341,391.018c7.582-3.81,15.165-7.613,22.747-11.422c0.042-0.021,0.089-0.033,0.124-0.063c0.617-0.518,1.184-0.364,1.856-0.02
			c3.44,1.791,6.907,3.527,10.365,5.286c4.076,2.068,8.152,4.143,12.229,6.212c0.102,0.054,0.198,0.111,0.355,0.203
			c-0.134,0.094-0.224,0.172-0.325,0.229c-5.482,2.955-10.966,5.909-16.448,8.861c-2.344,1.269-4.689,2.521-7.028,3.794
			c-0.26,0.146-0.461,0.154-0.731,0.009c-4.56-2.492-9.125-4.979-13.69-7.469c-3.172-1.729-6.345-3.452-9.517-5.184
			c-0.097-0.054-0.187-0.116-0.349-0.224C25.121,391.138,25.229,391.075,25.341,391.018z"/>
		<path fill="#DC007A" d="M19.877,406.635c3.814,2.072,7.625,4.15,11.438,6.229c5.349,2.912,10.701,5.814,16.041,8.744
			c0.79,0.438,1.501,0.447,2.291,0.021c5.477-2.969,10.963-5.919,16.445-8.873c3.751-2.021,7.5-4.045,11.254-6.063
			c0.709-0.38,1.161-0.905,1.146-1.752c-0.017-0.813-0.464-1.32-1.155-1.675c-1.695-0.854-3.391-1.713-5.079-2.576
			c-0.207-0.104-0.374-0.111-0.58,0.003c-0.553,0.313-1.118,0.606-1.678,0.913c-0.627,0.339-1.253,0.682-1.919,1.038
			c1.562,0.798,3.075,1.564,4.663,2.375c-0.2,0.119-0.296,0.185-0.396,0.231c-4.504,2.431-9.009,4.854-13.514,7.284
			c-3.322,1.791-6.646,3.575-9.966,5.375c-0.255,0.139-0.455,0.143-0.701-0.011c-0.416-0.25-0.85-0.474-1.277-0.703
			c-7.3-3.979-14.601-7.95-21.9-11.931c-0.105-0.061-0.207-0.128-0.393-0.242c1.682-0.849,3.288-1.653,4.953-2.494
			c-0.146-0.088-0.225-0.141-0.304-0.185c-1.087-0.594-2.18-1.18-3.26-1.782c-0.221-0.123-0.389-0.117-0.607-0.009
			c-1.807,0.918-3.617,1.831-5.432,2.731c-0.684,0.341-1.092,0.874-1.117,1.629C18.804,405.7,19.195,406.264,19.877,406.635z"/>
		<path fill="#DC007A" d="M77.458,416.486c-1.638-0.814-3.278-1.626-4.928-2.419c-0.146-0.067-0.393-0.063-0.539,0.019
			c-0.917,0.473-1.819,0.972-2.726,1.46c-0.276,0.146-0.552,0.305-0.881,0.481c1.474,0.726,2.877,1.409,4.356,2.142
			c-0.224,0.133-0.348,0.211-0.477,0.277c-5.097,2.747-10.194,5.49-15.291,8.236c-2.722,1.468-5.445,2.931-8.164,4.396
			c-0.21,0.114-0.372,0.118-0.576,0c-0.439-0.256-0.893-0.487-1.34-0.73c-7.19-3.914-14.381-7.828-21.57-11.74
			c-0.219-0.119-0.431-0.249-0.739-0.429c1.578-0.72,3.065-1.396,4.603-2.095c-0.074-0.047-0.101-0.065-0.131-0.083
			c-1.188-0.649-2.375-1.309-3.57-1.941c-0.098-0.055-0.271-0.029-0.382,0.021c-1.728,0.786-3.452,1.582-5.176,2.376
			c-0.686,0.313-1.069,0.862-1.099,1.604c-0.032,0.759,0.336,1.332,1.006,1.694c4.077,2.225,8.154,4.44,12.232,6.666
			c5.084,2.771,10.174,5.525,15.248,8.313c0.841,0.461,1.583,0.442,2.419-0.01c7.545-4.086,15.102-8.148,22.654-12.222
			c1.711-0.927,3.426-1.843,5.133-2.771c0.668-0.361,1.006-0.938,0.967-1.715C78.452,417.305,78.083,416.799,77.458,416.486z"/>
	</g>
</g>
<g>
	<rect x="15.883" y="446.255" fill="#ECECEC" fill-opacity="0" width="65.889" height="63.712"/>
	<g>
		<path fill="#DC007A" d="M78.823,468.373c-0.001-0.521-0.017-1.05-0.062-1.566c-0.117-1.321-0.775-2.325-1.865-3.063
			c-0.76-0.512-1.623-0.676-2.515-0.683c-2.134-0.015-4.269-0.004-6.401-0.004c-0.129,0-0.258,0-0.418,0c0-0.209,0-0.362,0-0.521
			c0-4.638,0-9.271,0-13.905c0-0.459,0-0.459-0.458-0.459c-12.188,0-24.377,0-36.565,0c-0.451,0-0.451,0-0.451,0.468
			c0,4.636,0,9.271,0,13.907c0,0.15,0,0.309,0,0.511c-0.193,0-0.326,0-0.458,0c-2.111,0-4.223-0.006-6.334,0.004
			c-0.365,0.003-0.738,0.028-1.094,0.105c-2.054,0.444-3.375,2.104-3.375,4.2c0,8.259-0.001,16.516,0.002,24.771
			c0,0.321,0.022,0.646,0.058,0.965c0.239,2.136,1.967,3.677,4.111,3.677c2.212,0.002,4.424,0,6.636,0.002
			c0.453,0,0.454,0,0.454,0.459c0,3.451,0,6.901,0,10.354c0,0.441,0,0.441,0.438,0.441c12.199,0,24.399,0,36.598,0
			c0.438,0,0.438,0,0.438-0.441c0-3.463,0.005-6.927-0.008-10.395c-0.001-0.337,0.086-0.438,0.429-0.436
			c2.256,0.017,4.513,0.02,6.771-0.002c0.405-0.004,0.828-0.069,1.213-0.2c1.725-0.585,2.854-2.063,2.854-4.101
			C78.83,484.439,78.826,476.406,78.823,468.373z M33.777,462.633c0-3.483,0-6.973,0-10.453c0-0.44,0.001-0.44,0.438-0.44
			c9.739-0.002,19.479-0.002,29.218,0c0.438,0,0.439,0,0.439,0.438c0,3.479,0,6.969,0,10.454c0,0.121,0,0.239,0,0.396
			c-10.031,0-20.04,0-30.096,0C33.777,462.873,33.777,462.755,33.777,462.633z M63.873,503.982c0,0.434-0.001,0.438-0.446,0.438
			c-9.73,0-19.462,0-29.193,0c-0.456,0-0.457-0.007-0.457-0.457c0-6.625,0-13.25,0-19.875c0-0.443,0-0.443,0.463-0.443
			c4.86,0,9.72,0,14.58,0c4.871,0,9.742,0,14.613,0c0.438,0,0.439,0.003,0.439,0.435C63.873,490.712,63.873,497.347,63.873,503.982z
			 M75.135,492.438c0,0.61-0.104,0.719-0.72,0.719c-2.134,0-4.27,0-6.402,0c-0.449,0-0.45-0.002-0.45-0.465
			c0-4.076,0-8.154,0-12.229c0-0.447,0-0.447-0.437-0.447c-12.2,0-24.4,0-36.6,0c-0.438,0-0.438,0-0.438,0.447
			c0,4.073,0,8.149,0,12.229c0,0.463,0,0.465-0.45,0.465c-2.146,0-4.29,0-6.435,0c-0.57,0-0.688-0.119-0.688-0.685
			c0-8.356,0-16.715,0-25.069c0-0.56,0.098-0.652,0.669-0.652c8.547,0,17.094,0,25.641,0c8.513,0,17.026,0,25.54,0
			c0.726,0,0.771,0.052,0.771,0.785C75.135,475.837,75.135,484.136,75.135,492.438z"/>
		<path fill="#DC007A" d="M67.633,470.635c-0.658-0.007-1.316-0.011-1.976,0c-0.957,0.013-1.801,0.881-1.782,1.82
			c0.02,0.975,0.843,1.794,1.805,1.805c0.323,0.002,0.646,0,0.971,0c0.323,0,0.646,0.002,0.97,0c0.98-0.007,1.832-0.862,1.815-1.821
			C69.419,471.467,68.6,470.642,67.633,470.635z"/>
	</g>
</g>
<g>
	<rect x="15.883" y="519.249" fill="#ECECEC" fill-opacity="0" width="65.889" height="63.713"/>
	<g>
		<path fill="#DC007A" d="M63.838,577.939c0-0.504,0-0.504-0.521-0.504c-8.855,0-17.713,0-26.568,0
			c-4.603,0-9.204-0.004-13.808,0.009c-0.33,0.001-0.437-0.08-0.43-0.423c0.021-1.123,0.029-2.248,0.002-3.372
			c-0.023-1.057,0.455-1.765,1.382-2.201c2.785-1.313,5.57-2.631,8.355-3.943c2.815-1.329,5.641-2.646,8.443-4
			c1.327-0.646,2.002-1.782,2.052-3.229c0.038-1.129-0.438-2.08-1.279-2.854c-0.588-0.539-1.178-1.093-1.686-1.699
			c-1.201-1.45-2.032-3.118-2.689-4.875c-0.868-2.313-1.435-4.694-1.475-7.168c-0.052-3.104-0.021-6.213-0.003-9.318
			c0.003-0.467,0.09-0.945,0.224-1.396c0.357-1.203,1.089-2.192,1.931-3.104c1.479-1.593,3.238-2.799,5.206-3.699
			c2.449-1.122,5-1.681,7.695-1.229c3.869,0.645,7.113,2.438,9.672,5.415c1.039,1.209,1.72,2.578,1.693,4.253
			c-0.043,2.854-0.002,5.703-0.019,8.557c-0.005,0.846-0.05,1.688-0.138,2.525c-0.251,2.388-0.873,4.68-1.866,6.865
			c-0.849,1.863-1.964,3.539-3.581,4.846c-0.866,0.698-1.343,1.634-1.354,2.744c-0.021,1.564,0.696,2.742,2.104,3.438
			c1.743,0.861,3.51,1.683,5.268,2.517c0.101,0.051,0.207,0.08,0.348,0.135c0.301-1.227,0.593-2.406,0.887-3.604
			c-1.674-0.783-3.309-1.557-5.004-2.353c0.151-0.138,0.238-0.208,0.317-0.288c0.604-0.604,1.251-1.179,1.801-1.83
			c1.574-1.865,2.641-4.021,3.421-6.316c0.852-2.514,1.403-5.084,1.426-7.74c0.029-3.387,0.011-6.771,0.003-10.153
			c-0.001-0.347-0.039-0.691-0.104-1.031c-0.399-2.053-1.453-3.765-2.814-5.305c-1.632-1.851-3.583-3.279-5.771-4.396
			c-2.167-1.104-4.455-1.828-6.882-2.017c-2.047-0.155-4.067,0.063-6.036,0.683c-3.96,1.24-7.328,3.372-9.882,6.688
			c-1.464,1.896-2.259,4.021-2.194,6.47c0.07,2.813,0.006,5.636,0.021,8.45c0.005,0.796,0.046,1.599,0.146,2.388
			c0.283,2.244,0.827,4.435,1.652,6.539c1.138,2.907,2.685,5.543,5.097,7.6c0.066,0.061,0.122,0.134,0.212,0.229
			c-0.131,0.075-0.233,0.146-0.344,0.195c-1.361,0.645-2.725,1.278-4.085,1.926c-4.063,1.917-8.127,3.831-12.188,5.755
			c-0.936,0.441-1.807,0.992-2.564,1.706c-0.64,0.603-1.077,1.3-1.078,2.211c-0.001,1.717-0.014,3.435,0.005,5.146
			c0.011,1.104,0.335,2.101,1.16,2.883c0.801,0.761,1.761,1.029,2.855,1.027c13.493-0.014,26.986-0.009,40.48-0.009
			c0.058,0,0.116-0.007,0.174,0.001c0.265,0.029,0.337-0.097,0.334-0.347C63.833,579.794,63.838,578.865,63.838,577.939z"/>
		<path fill="#DC007A" d="M78.815,571.634c-0.131-1.047-0.867-1.703-1.93-1.706c-1.703-0.005-3.408-0.001-5.111-0.001
			c-0.133,0-0.266,0-0.424,0c0-0.2,0-0.338,0-0.479c0-1.525,0.003-3.062-0.004-4.59c-0.001-0.313-0.024-0.624-0.067-0.935
			c-0.132-0.943-1.141-1.656-2.06-1.471c-0.97,0.201-1.555,0.92-1.559,1.933c-0.004,1.704-0.001,3.408-0.001,5.106
			c0,0.139,0,0.271,0,0.43c-0.2,0-0.339,0-0.477,0c-1.704,0-3.408-0.01-5.11,0.002c-1.03,0.005-1.791,0.706-1.92,1.736
			c-0.091,0.733,0.53,1.611,1.328,1.826c0.297,0.081,0.615,0.111,0.926,0.113c1.601,0.012,3.198,0.006,4.799,0.006
			c0.136,0,0.271,0,0.454,0c0,0.203,0,0.344,0,0.479c0,1.646-0.005,3.293,0.004,4.938c0.001,0.241,0.029,0.486,0.088,0.721
			c0.168,0.675,0.799,1.234,1.434,1.312c0.855,0.098,1.564-0.215,1.893-0.923c0.164-0.354,0.254-0.773,0.261-1.169
			c0.026-1.638,0.012-3.271,0.012-4.9c0-0.137,0-0.271,0-0.45c0.178,0,0.313,0,0.449,0c1.402,0,2.804,0.006,4.206-0.003
			c0.428-0.003,0.854-0.024,1.28-0.063C78.188,573.462,78.927,572.526,78.815,571.634z"/>
	</g>
</g>
<g>
	<rect x="15.883" y="592.244" fill="#ECECEC" fill-opacity="0" width="65.889" height="63.711"/>
	<g>
		<path fill="#DC007A" d="M64.823,644.607c-0.711-0.689-1.589-1.104-2.44-1.57c-3.745-2.055-7.479-4.131-11.214-6.194
			c-0.157-0.093-0.307-0.19-0.499-0.313c0.125-0.117,0.219-0.195,0.304-0.287c0.558-0.586,1.177-1.127,1.659-1.771
			c2.396-3.193,3.373-6.9,3.564-10.807c0.15-3.053,0.036-6.111,0.037-9.175c0-0.229,0.009-0.466-0.024-0.688
			c-0.252-1.764-1.056-3.271-2.174-4.617c-1.633-1.979-3.66-3.429-6.004-4.438c-2.574-1.104-5.25-1.55-8.025-1.021
			c-3.677,0.699-6.793,2.438-9.298,5.229c-1.671,1.859-2.594,4.009-2.509,6.564c0.068,2.048,0.001,4.102,0.021,6.149
			c0.007,0.813,0.062,1.641,0.129,2.452c0.152,1.828,0.582,3.604,1.191,5.326c0.782,2.217,1.856,4.269,3.492,5.981
			c0.341,0.359,0.652,0.746,0.994,1.142c-0.017,0.017-0.1,0.07-0.19,0.12c-3.306,1.794-6.615,3.581-9.917,5.384
			c-1.208,0.659-2.42,1.314-3.585,2.045c-0.789,0.492-1.467,1.179-1.486,2.187c-0.031,1.678-0.033,3.354,0.062,5.031
			c0.088,1.561,1.458,2.765,3.001,2.766c13.565,0.003,27.13,0.002,40.695-0.001c0.681,0,1.292-0.229,1.831-0.646
			c0.862-0.666,1.228-1.571,1.24-2.636c0.018-1.396-0.004-2.803,0.008-4.204C65.689,645.814,65.394,645.16,64.823,644.607z
			 M61.545,650.489c-4.61-0.011-9.221-0.007-13.831-0.007c-1.819,0-3.639,0-5.456,0c-6.406,0-12.813,0.001-19.218,0
			c-0.525,0-0.525,0-0.525-0.525c0-0.864,0.01-1.732-0.006-2.604c-0.005-0.271,0.087-0.427,0.317-0.551
			c1.568-0.852,3.132-1.699,4.699-2.555c2.767-1.502,5.538-2.991,8.3-4.506c1.252-0.686,1.917-1.781,1.956-3.188
			c0.03-1.091-0.373-2.087-1.235-2.8c-1.778-1.475-2.836-3.396-3.583-5.521c-0.714-2.029-1.106-4.118-1.072-6.286
			c0.037-2.374,0.026-4.75-0.001-7.124c-0.01-0.82,0.219-1.55,0.642-2.229c1.081-1.74,2.623-2.979,4.386-3.959
			c1.389-0.773,2.873-1.297,4.458-1.438c1.704-0.146,3.365,0.089,4.958,0.745c2.077,0.854,3.851,2.111,5.206,3.92
			c0.703,0.938,1.107,1.964,1.084,3.187c-0.048,2.521,0.006,5.052-0.02,7.571c-0.027,2.7-0.545,5.311-1.697,7.766
			c-0.58,1.231-1.366,2.322-2.432,3.214c-2.152,1.791-1.862,4.854,0.579,6.212c3.894,2.167,7.793,4.323,11.691,6.479
			c0.323,0.186,0.656,0.347,0.987,0.511c0.201,0.102,0.269,0.243,0.266,0.476c-0.012,0.927-0.023,1.854,0.004,2.779
			C62.014,650.423,61.88,650.49,61.545,650.489z"/>
		<path fill="#DC007A" d="M78.825,637.408c0.026-1.045-0.382-1.858-1.21-2.438c-0.748-0.521-1.551-0.964-2.35-1.401
			c-3.743-2.056-7.494-4.097-11.242-6.144c-0.125-0.067-0.24-0.153-0.377-0.243c0.068-0.081,0.1-0.13,0.142-0.165
			c1.676-1.392,2.858-3.144,3.726-5.119c1.127-2.563,1.777-5.258,1.839-8.06c0.061-2.756-0.014-5.521,0.03-8.271
			c0.026-1.646-0.454-3.126-1.336-4.479c-1.735-2.667-4.166-4.502-7.057-5.751c-2.471-1.065-5.047-1.521-7.724-1.068
			c-3.506,0.583-6.518,2.162-9.063,4.637c-0.22,0.218-0.422,0.446-0.692,0.734c0.648,0.039,1.18,0.051,1.705,0.11
			c0.835,0.097,1.67,0.205,2.498,0.354c0.276,0.05,0.472,0.021,0.701-0.142c2.416-1.72,5.108-2.449,8.057-2.146
			c1.534,0.158,2.97,0.685,4.318,1.436c1.516,0.843,2.842,1.909,3.886,3.308c0.703,0.938,1.114,1.961,1.085,3.182
			c-0.053,2.198-0.029,4.4-0.01,6.604c0.012,1.394-0.071,2.771-0.351,4.137c-0.631,3.086-1.691,5.938-4.228,8.027
			c-0.862,0.711-1.232,1.727-1.178,2.818c0.068,1.372,0.737,2.44,1.962,3.112c3.003,1.646,6.012,3.285,9.021,4.925
			c1.199,0.648,2.4,1.306,3.613,1.929c0.396,0.204,0.575,0.438,0.551,0.908c-0.043,0.813-0.012,1.619-0.013,2.435
			c0,0.462-0.001,0.464-0.458,0.465c-2.166,0.001-4.332,0-6.498,0c-0.124,0-0.248,0-0.399,0c0.213,0.257,0.416,0.477,0.59,0.714
			c0.557,0.769,0.801,1.661,1.038,2.56c0.073,0.272,0.196,0.361,0.479,0.359c1.912-0.012,3.823,0.01,5.734-0.019
			c0.417-0.007,0.858-0.098,1.243-0.259c1.334-0.563,1.928-1.644,1.953-3.043C78.835,640.073,78.79,638.74,78.825,637.408z"/>
	</g>
</g>
<g>
	<rect x="15.883" y="738.238" fill="#ECECEC" fill-opacity="0" width="65.889" height="63.711"/>
	<g>
		<path fill="#DC007A" d="M78.824,748.753c0-0.285-0.021-0.574-0.066-0.856c-0.296-1.767-1.873-3.093-3.665-3.093
			c-8.757-0.002-17.516-0.002-26.272-0.002c-8.748,0-17.495,0-26.242,0.008c-0.352,0-0.714,0.058-1.052,0.15
			c-1.542,0.446-2.698,1.807-2.698,3.773c0,14.028-0.001,28.063,0.002,42.089c0,0.396,0.025,0.792,0.05,1.188
			c0.113,1.783,1.679,3.373,3.667,3.373c17.515,0.004,35.029,0.003,52.544-0.001c0.265,0,0.534-0.034,0.793-0.097
			c1.613-0.354,2.942-1.729,2.942-3.854C78.827,777.208,78.828,762.979,78.824,748.753z M22.964,748.445c9.174,0,18.349,0,27.521,0
			c8.013,0,16.025,0,24.039,0c0.068,0,0.139-0.001,0.207,0c0.396,0.002,0.397,0.003,0.397,0.396c0,11.229,0,22.457,0,33.688
			c0,0.104,0,0.213,0,0.317c-0.037,0.021-0.075,0.037-0.112,0.058c-0.142-0.163-0.274-0.333-0.426-0.483
			c-2.464-2.521-4.931-5.037-7.396-7.56c-1.014-1.036-2.018-2.081-3.036-3.111c-0.84-0.854-1.795-0.896-2.697-0.118
			c-2.229,1.933-4.45,3.864-6.667,5.813c-0.192,0.168-0.306,0.177-0.488-0.008c-1.01-1.016-2.032-2.013-3.048-3.021
			c-3.541-3.508-7.081-7.017-10.622-10.521c-0.6-0.597-1.2-1.188-1.8-1.779c-0.703-0.688-1.838-0.709-2.554-0.017
			c-1.726,1.672-3.442,3.352-5.164,5.021c-2.782,2.707-5.563,5.413-8.346,8.119c-0.055,0.058-0.12,0.099-0.229,0.185
			c-0.01-0.149-0.022-0.255-0.022-0.354c-0.001-8.747-0.001-17.494-0.001-26.242C22.523,748.446,22.524,748.445,22.964,748.445z
			 M74.861,791.74c-0.107-0.007-0.217,0-0.326,0c-8.569,0-17.14,0-25.708,0c-8.579,0-17.159,0-25.737,0
			c-0.089,0-0.18-0.007-0.269,0.001c-0.234,0.021-0.303-0.083-0.302-0.313c0.006-3.534,0.001-7.067,0.014-10.604
			c0-0.146,0.105-0.338,0.219-0.445c1.831-1.791,3.67-3.571,5.509-5.354c1.703-1.651,3.407-3.305,5.11-4.954
			c1.34-1.3,2.681-2.6,4.016-3.897c0.16-0.156,0.288-0.198,0.435-0.002c0.023,0.027,0.056,0.059,0.083,0.086
			c5.066,5.061,10.144,10.104,15.187,15.188c0.909,0.916,2.041,0.633,2.686,0.053c2.081-1.87,4.154-3.753,6.228-5.634
			c0.593-0.538,0.581-0.537,1.143,0.041c1.569,1.617,3.145,3.229,4.718,4.842c2.384,2.445,4.769,4.896,7.146,7.343
			c0.067,0.066,0.113,0.188,0.114,0.283c0.008,1.032,0.001,2.064,0.009,3.103C75.136,791.66,75.068,791.757,74.861,791.74z"/>
		<path fill="#DC007A" d="M61.965,763.458c1.886,0.073,3.661-1.521,3.689-3.608c0.031-2.229-1.836-3.738-3.663-3.745
			c-1.963-0.009-3.707,1.579-3.721,3.658C58.258,761.967,60.129,763.546,61.965,763.458z"/>
	</g>
</g>
<g>
	<rect x="15.883" y="300.261" fill="#ECECEC" fill-opacity="0" width="65.889" height="63.712"/>
	<path fill="#DC007A" d="M64.078,334.273c-1.484-1.146-3.238-2.135-5.028-2.655c-4.833-1.413-9.743-2.565-14.637-3.771
		c-2.05-0.506-4.089-1.008-5.414-2.818c-0.4-0.546-0.768-1.265-0.791-1.915c-0.131-3.734,2.32-6.129,5.417-6.979
		c3.001-0.823,6.145-0.615,9.229-0.21c1.767,0.231,3.25,1.139,4.012,2.719c0.608,1.26,0.831,2.72,1.123,4.109
		c0.188,0.896,0.529,1.437,1.535,1.41c1.484-0.034,2.971-0.037,4.454,0.004c0.735,0.021,1.119-0.26,1.129-0.983
		c0.013-1.018,0.108-2.048-0.024-3.047c-0.468-3.493-1.941-6.386-5.178-8.142c-1.935-1.053-3.926-1.922-6.136-2.205
		c-0.878-0.112-1.473-0.483-1.328-1.556c0.087-0.646,0.043-1.313,0.009-1.966c-0.046-0.896-0.538-1.394-1.446-1.404
		c-1.483-0.021-2.967-0.023-4.45-0.021c-1.116,0.001-1.57,0.435-1.597,1.537c-0.022,0.968-0.008,1.936-0.01,2.896
		c-0.033,0.04-0.07,0.076-0.111,0.108c-0.226,0.07-0.45,0.147-0.678,0.216c-1.892,0.55-3.856,0.925-5.66,1.688
		c-2.825,1.188-5.003,3.209-6.398,5.997c-1.14,2.278-1.253,4.711-1.229,7.201c0.028,2.964,1.387,5.094,3.768,6.651
		c3.242,2.127,6.962,2.95,10.669,3.784c3.457,0.777,6.931,1.479,10.373,2.318c0.866,0.211,1.746,0.671,2.435,1.236
		c1.77,1.461,1.496,3.473,0.951,5.319c-0.743,2.521-2.727,3.93-5.173,4.521c-3.309,0.804-6.678,0.769-10.035,0.202
		c-2.382-0.396-6.032-3.514-5.513-6.66c0.085-0.518-0.087-1.087-0.195-1.618c-0.143-0.696-0.569-1.036-1.32-1.021
		c-1.588,0.029-3.178,0.044-4.765-0.006c-0.831-0.024-1.137,0.438-1.188,1.104c-0.352,4.646,1.167,8.521,4.946,11.331
		c2.313,1.723,4.949,2.75,7.864,2.969c0.837,0.063,1.341,0.451,1.272,1.394c-0.043,0.584-0.022,1.174-0.004,1.762
		c0.031,1.018,0.521,1.566,1.504,1.598c1.483,0.035,2.97,0.034,4.453-0.002c0.97-0.022,1.503-0.604,1.54-1.578
		c0.024-0.619,0.021-1.242,0.001-1.863c-0.021-0.646,0.191-1.021,0.898-1.118c1.184-0.163,2.377-0.325,3.531-0.622
		c2.729-0.697,5.245-1.771,6.971-4.188c1.933-2.7,2.912-5.707,2.972-9.013C66.871,338.367,66.194,335.906,64.078,334.273z"/>
</g>
<g>
	<rect x="15.883" y="665.24" fill="#ECECEC" fill-opacity="0" width="65.889" height="63.712"/>
	<g>
		<path fill="#DC007A" d="M78.823,683.198c0-0.271-0.028-0.548-0.074-0.813c-0.321-1.841-1.984-3.075-3.727-3.07
			c-9.24,0.021-18.48,0.007-27.721,0.014c-0.258,0-0.44-0.071-0.622-0.259c-1.71-1.723-3.429-3.435-5.141-5.148
			c-0.149-0.149-0.299-0.229-0.52-0.229c-6.18,0.006-12.359,0.004-18.539,0.009c-0.252,0-0.51,0.035-0.756,0.1
			c-1.647,0.392-2.893,1.768-2.894,3.791c-0.005,13.016-0.003,26.021,0.001,39.039c0,0.277,0.032,0.563,0.083,0.846
			c0.335,1.838,1.964,3.048,3.746,3.045c8.729-0.021,17.458-0.009,26.188-0.009c8.72,0,17.438,0,26.16-0.003
			c0.181,0,0.361,0.014,0.539-0.019c1.93-0.297,3.28-1.774,3.28-3.875C78.829,705.473,78.827,694.341,78.823,683.198z
			 M75.126,716.427c0,0.43,0,0.431-0.432,0.431c-8.624,0-17.249,0-25.874,0c-8.577,0-17.155,0-25.732,0.001
			c-0.105,0-0.209-0.008-0.313,0c-0.178,0.015-0.271-0.053-0.25-0.242c0.006-0.063,0-0.133,0-0.198c0-12.881,0-25.763,0-38.644
			c0-0.436,0-0.436,0.426-0.436c5.441,0,10.882,0.002,16.322-0.006c0.247,0,0.421,0.068,0.598,0.243
			c1.76,1.728,3.531,3.438,5.29,5.16c0.182,0.183,0.364,0.229,0.605,0.229c9.601-0.004,19.202-0.004,28.803-0.003
			c0.653,0.001,0.556-0.07,0.556,0.561C75.127,694.491,75.126,705.462,75.126,716.427z"/>
		<path fill="#DC007A" d="M56.641,701.201c-0.761-0.589-1.659-1.095-2.577-1.357c-2.476-0.729-4.992-1.314-7.499-1.938
			c-1.05-0.259-2.095-0.516-2.774-1.439c-0.205-0.279-0.393-0.646-0.405-0.98c-0.067-1.914,1.188-3.141,2.774-3.575
			c1.538-0.423,3.148-0.313,4.729-0.104c0.905,0.119,1.665,0.582,2.055,1.393c0.313,0.646,0.426,1.396,0.576,2.105
			c0.096,0.461,0.271,0.731,0.787,0.724c0.76-0.019,1.522-0.02,2.282,0.002c0.377,0.015,0.573-0.131,0.579-0.505
			c0.006-0.521,0.055-1.05-0.013-1.563c-0.24-1.789-0.995-3.271-2.653-4.172c-0.991-0.535-2.011-0.98-3.144-1.132
			c-0.45-0.06-0.754-0.247-0.681-0.796c0.044-0.329,0.021-0.672,0.005-1.008c-0.024-0.459-0.276-0.713-0.741-0.72
			c-0.76-0.016-1.52-0.02-2.28-0.018c-0.572,0.002-0.804,0.227-0.818,0.787c-0.012,0.495-0.004,0.989-0.005,1.485
			c-0.018,0.021-0.036,0.039-0.058,0.058c-0.116,0.037-0.229,0.075-0.347,0.108c-0.969,0.281-1.977,0.476-2.9,0.863
			c-1.448,0.606-2.563,1.646-3.277,3.069c-0.584,1.169-0.643,2.412-0.63,3.688c0.014,1.521,0.71,2.606,1.93,3.408
			c1.661,1.09,3.567,1.512,5.466,1.938c1.771,0.396,3.551,0.763,5.314,1.188c0.444,0.104,0.895,0.344,1.248,0.635
			c0.906,0.748,0.767,1.777,0.487,2.729c-0.381,1.291-1.396,2.014-2.65,2.313c-1.695,0.41-3.421,0.396-5.142,0.104
			c-1.22-0.203-3.09-1.802-2.824-3.411c0.043-0.268-0.044-0.561-0.1-0.831c-0.073-0.357-0.292-0.53-0.676-0.523
			c-0.814,0.021-1.628,0.022-2.441-0.002c-0.426-0.014-0.583,0.228-0.607,0.566c-0.181,2.38,0.598,4.364,2.534,5.806
			c1.185,0.883,2.536,1.409,4.029,1.521c0.429,0.029,0.688,0.229,0.652,0.715c-0.022,0.299-0.011,0.604-0.002,0.898
			c0.016,0.521,0.267,0.808,0.771,0.815c0.76,0.021,1.521,0.021,2.282-0.001c0.497-0.014,0.77-0.312,0.789-0.811
			c0.012-0.316,0.011-0.642,0-0.956c-0.011-0.328,0.098-0.521,0.46-0.571c0.606-0.083,1.218-0.167,1.81-0.317
			c1.398-0.354,2.687-0.907,3.571-2.146c0.99-1.385,1.492-2.925,1.522-4.614C58.072,703.302,57.725,702.037,56.641,701.201z"/>
	</g>
</g>
<g>
	<rect x="93.168" y="8.278" fill="#ECECEC" fill-opacity="0" width="65.889" height="63.711"/>
	<path fill="#F5F5F5" d="M106,47.721c-0.187-0.138-0.316-0.242-0.465-0.339c-2.354-1.57-4.717-3.146-7.082-4.71
		c-0.443-0.296-0.808-0.646-0.938-1.181c-0.205-0.806,0.063-1.451,0.689-1.953c1.116-0.893,2.246-1.77,3.369-2.646
		c1.559-1.225,3.111-2.443,4.668-3.666c0.075-0.063,0.146-0.133,0.243-0.229c-0.334-0.285-0.646-0.559-0.961-0.82
		c-2.828-2.375-5.653-4.752-8.485-7.121c-0.468-0.394-0.873-0.813-0.92-1.458c-0.06-0.775,0.268-1.361,0.918-1.771
		c1.764-1.103,3.521-2.2,5.282-3.303c3.748-2.338,7.496-4.677,11.244-7.014c0.869-0.542,1.606-0.501,2.397,0.139
		c3.043,2.458,6.082,4.922,9.125,7.385c0.248,0.198,0.509,0.388,0.738,0.604c0.188,0.18,0.342,0.17,0.534,0.009
		c0.951-0.779,1.91-1.553,2.867-2.326c2.354-1.897,4.696-3.804,7.056-5.695c0.756-0.604,1.484-0.647,2.284-0.15
		c5.515,3.438,11.021,6.873,16.526,10.313c0.9,0.563,1.248,1.478,0.847,2.333c-0.146,0.313-0.401,0.604-0.674,0.835
		c-1.3,1.116-2.619,2.213-3.938,3.313c-1.811,1.521-3.617,3.037-5.43,4.56c-0.059,0.049-0.104,0.108-0.189,0.208
		c0.42,0.337,0.824,0.665,1.234,0.986c2.32,1.83,4.646,3.656,6.967,5.488c1.115,0.883,1.063,2.309-0.129,3.103
		c-2.271,1.521-4.549,3.042-6.832,4.554c-0.279,0.188-0.445,0.363-0.316,0.722c0.037,0.105,0.02,0.237,0.02,0.357
		c0,2.571,0.003,5.146-0.004,7.72c0,0.341-0.016,0.685-0.063,1.019c-0.104,0.604-0.479,1.021-0.998,1.315
		c-2.414,1.38-4.824,2.765-7.235,4.146c-3.688,2.115-7.382,4.226-11.062,6.354c-0.817,0.477-1.563,0.467-2.386-0.003
		c-6.103-3.477-12.209-6.937-18.321-10.38c-0.854-0.479-1.25-1.123-1.237-2.104c0.028-2.109,0.015-4.225,0.006-6.333
		C105.347,49.167,105.277,48.351,106,47.721z M139.38,33.043c-0.147-0.11-0.229-0.186-0.319-0.239
		c-4.228-2.75-8.456-5.498-12.679-8.259c-0.229-0.147-0.387-0.111-0.59,0.021c-4.217,2.749-8.438,5.493-12.649,8.239
		c-0.095,0.063-0.177,0.14-0.3,0.234c0.146,0.102,0.242,0.167,0.343,0.229c4.198,2.632,8.399,5.261,12.594,7.897
		c0.24,0.148,0.412,0.147,0.65-0.001c3.905-2.457,7.817-4.901,11.729-7.354C138.546,33.572,138.933,33.326,139.38,33.043z
		 M129.225,22.027c0.137,0.1,0.221,0.162,0.31,0.223c4.252,2.771,8.508,5.536,12.754,8.313c0.278,0.186,0.455,0.175,0.707-0.039
		c2.627-2.221,5.267-4.43,7.897-6.642c0.082-0.068,0.194-0.104,0.342-0.187c-0.215-0.15-0.299-0.221-0.392-0.273
		c-4.305-2.688-8.608-5.375-12.909-8.065c-0.199-0.125-0.336-0.125-0.521,0.022c-2.404,1.953-4.815,3.896-7.229,5.85
		C129.875,21.482,129.568,21.742,129.225,22.027z M100.986,23.656c0.17,0.121,0.283,0.188,0.383,0.273
		c0.508,0.421,1.014,0.846,1.521,1.271c2.117,1.778,4.238,3.561,6.354,5.349c0.235,0.199,0.397,0.193,0.652,0.026
		c4.082-2.671,8.171-5.325,12.259-7.984c0.265-0.172,0.521-0.349,0.822-0.548c-0.134-0.123-0.226-0.216-0.319-0.296
		c-2.589-2.096-5.182-4.185-7.762-6.284c-0.255-0.208-0.436-0.229-0.715-0.05c-3.739,2.351-7.487,4.685-11.23,7.021
		C102.332,22.815,101.721,23.198,100.986,23.656z M122.871,43.688c-0.123-0.094-0.197-0.167-0.289-0.224
		c-4.254-2.666-8.51-5.327-12.76-8c-0.224-0.143-0.369-0.139-0.578,0.024c-1.92,1.521-3.851,3.031-5.771,4.548
		c-0.354,0.271-0.694,0.557-1.071,0.854c0.146,0.105,0.238,0.184,0.336,0.249c4.07,2.713,8.146,5.422,12.205,8.146
		c0.271,0.181,0.438,0.157,0.688-0.029c1.877-1.45,3.768-2.895,5.646-4.334C121.794,44.521,122.313,44.119,122.871,43.688z
		 M149.746,40.901c-0.105-0.104-0.188-0.188-0.283-0.264c-2.162-1.709-4.328-3.414-6.486-5.127
		c-0.208-0.165-0.365-0.192-0.604-0.042c-4.229,2.659-8.469,5.313-12.699,7.97c-0.104,0.063-0.196,0.147-0.32,0.245
		c0.137,0.118,0.229,0.208,0.335,0.287c2.3,1.768,4.604,3.527,6.896,5.306c0.219,0.169,0.361,0.188,0.603,0.03
		c4.079-2.729,8.168-5.449,12.252-8.174C149.525,41.069,149.617,40.996,149.746,40.901z M127.835,47.207c0,5.688,0,11.313,0,17.001
		c0.172-0.085,0.289-0.14,0.396-0.198c1.204-0.688,2.406-1.368,3.608-2.056c3.582-2.037,7.16-4.076,10.748-6.104
		c0.273-0.157,0.375-0.33,0.371-0.646c-0.019-1.641-0.008-3.273-0.008-4.915c-0.002-0.123-0.019-0.245-0.025-0.422
		c-0.18,0.105-0.303,0.177-0.418,0.255c-1.51,1.006-3.016,2.018-4.521,3.021c-0.91,0.604-1.633,0.563-2.502-0.107
		c-2.439-1.889-4.896-3.767-7.346-5.646C128.062,47.327,127.966,47.284,127.835,47.207z M124.126,47.372
		c-0.142,0.087-0.229,0.14-0.313,0.197c-2.396,1.826-4.787,3.653-7.179,5.483c-0.862,0.66-1.563,0.688-2.475,0.083
		c-1.582-1.058-3.164-2.11-4.746-3.163c-0.108-0.073-0.232-0.125-0.399-0.212c-0.015,0.185-0.022,0.303-0.022,0.421
		c-0.003,1.682,0.008,3.361-0.009,5.046c-0.002,0.294,0.104,0.451,0.356,0.592c4.804,2.688,9.603,5.386,14.396,8.076
		c0.107,0.063,0.229,0.105,0.385,0.184C124.126,58.493,124.126,52.965,124.126,47.372z"/>
</g>
<g>
	<rect x="93.168" y="81.274" fill="#ECECEC" fill-opacity="0" width="65.889" height="63.711"/>
	<g>
		<path fill="#F5F5F5" d="M114.893,99.928c6.553,0,13.104,0,19.66,0c6.583,0,13.165,0,19.747,0c0.906,0,1.785-0.688,1.812-1.834
			c0.021-0.986-0.832-1.807-1.81-1.808c-13.155-0.001-26.313-0.001-39.469,0.004c-0.203,0-0.418,0.041-0.606,0.109
			c-0.833,0.313-1.337,1.188-1.175,2.018C113.231,99.319,113.972,99.928,114.893,99.928z"/>
		<path fill="#F5F5F5" d="M154.186,111.304c-2.412,0-4.824,0-7.237,0c-10.675,0-21.349-0.001-32.021,0.004
			c-0.233,0-0.479,0.032-0.696,0.111c-0.823,0.302-1.323,1.158-1.183,1.98c0.152,0.902,0.916,1.541,1.844,1.541
			c6.543,0,13.086,0,19.63,0c4.915,0,9.83,0,14.745,0c1.688,0,3.376,0.013,5.063-0.004c0.979-0.009,1.813-0.797,1.771-1.888
			C156.061,112.002,155.25,111.304,154.186,111.304z"/>
		<path fill="#F5F5F5" d="M154.246,126.322c-2.113-0.001-4.229,0-6.344,0c-10.992,0-21.984-0.001-32.977,0.007
			c-0.232,0-0.479,0.03-0.697,0.108c-0.835,0.308-1.337,1.186-1.178,2.016c0.173,0.896,0.914,1.512,1.836,1.512
			c6.555,0,13.105,0,19.66,0c4.717,0,9.434,0,14.146,0c1.877,0,3.754,0.007,5.632-0.003c0.896-0.004,1.766-0.693,1.782-1.829
			C156.128,127.112,155.275,126.323,154.246,126.322z"/>
		<path fill="#F5F5F5" d="M101.951,94.434c-0.283-0.044-0.568-0.054-0.854-0.051c-1.12,0.011-2.241-0.003-3.357,0.062
			c-0.836,0.05-1.464,0.709-1.563,1.539c-0.037,0.306-0.057,0.61-0.051,0.917c0.01,1.119,0,2.24,0.063,3.356
			c0.043,0.781,0.738,1.458,1.523,1.511c0.709,0.048,1.424,0.011,2.137,0.011c0,0.021,0,0.036,0,0.057
			c0.585,0,1.171,0.006,1.756-0.001c1.127-0.015,1.947-0.804,1.964-1.922c0.019-1.201,0.017-2.4,0-3.604
			C103.548,95.309,102.921,94.59,101.951,94.434z"/>
		<path fill="#F5F5F5" d="M101.951,109.452c-0.283-0.044-0.572-0.056-0.854-0.053c-1.12,0.013-2.241-0.003-3.357,0.063
			c-0.838,0.049-1.465,0.709-1.563,1.538c-0.037,0.305-0.057,0.608-0.051,0.917c0.01,1.12,0,2.241,0.063,3.355
			c0.043,0.781,0.738,1.458,1.523,1.513c0.719,0.048,1.438,0.01,2.166,0.01c0,0.02,0,0.036,0,0.056c0.574,0,1.146,0.005,1.728-0.001
			c1.127-0.014,1.946-0.801,1.964-1.921c0.02-1.201,0.016-2.401,0-3.604C103.548,110.328,102.921,109.604,101.951,109.452z"/>
		<path fill="#F5F5F5" d="M101.607,124.419c-1.16-0.01-2.322-0.015-3.482,0c-1.219,0.015-2.002,0.813-2.01,2.032
			c-0.004,1.131-0.006,2.263,0,3.396c0.008,1.205,0.785,2.001,1.99,2.021c1.172,0.02,2.342,0.013,3.514,0.002
			c1.014-0.014,1.771-0.631,1.885-1.622c0.078-0.688,0.021-1.387,0.021-2.077c0.021,0,0.031,0,0.048,0
			c0-0.596,0.01-1.189-0.002-1.784C103.55,125.243,102.744,124.428,101.607,124.419z"/>
	</g>
</g>
<g>
	<rect x="93.168" y="154.27" fill="#ECECEC" fill-opacity="0" width="65.889" height="63.711"/>
	<path fill="#F5F5F5" d="M126.113,166.463c8.145,0,16.282-0.009,24.424,0.007c2.797,0.005,5.031,2.05,5.461,4.602
		c0.066,0.396,0.107,0.803,0.107,1.2c0.008,9.275,0.006,18.559,0.006,27.832c0,2.688-1.746,4.909-4.354,5.533
		c-0.391,0.093-0.795,0.147-1.195,0.147c-16.301,0.007-32.604,0.015-48.906-0.001c-2.729-0.005-5.047-1.991-5.479-4.796
		c-0.051-0.328-0.063-0.67-0.063-1.005c-0.004-9.249-0.004-18.497-0.002-27.745c0-1.688,0.58-3.143,1.83-4.297
		c0.879-0.813,1.92-1.3,3.116-1.422c0.382-0.039,0.768-0.057,1.148-0.057C110.177,166.463,118.144,166.463,126.113,166.463z
		 M126.099,202.141c8.045,0,16.089,0.001,24.134-0.004c0.267,0,0.541-0.024,0.797-0.096c0.927-0.25,1.433-0.994,1.433-2.106
		c0.009-5.438,0-10.873,0.013-16.313c0-0.274-0.084-0.361-0.363-0.359c-1.674,0.012-3.353,0.006-5.021,0.006
		c-15.641,0-31.271,0-46.911,0c-0.405,0-0.409,0-0.409,0.357c-0.001,5.445-0.003,10.896,0.003,16.342
		c0,0.421,0.056,0.845,0.288,1.218c0.438,0.699,1.094,0.956,1.884,0.956C109.99,202.141,118.044,202.141,126.099,202.141z
		 M126.117,175.868c8.631,0,17.266,0,25.896,0c0.449,0,0.449,0,0.449-0.441c0-1.021,0.01-2.04-0.004-3.063
		c-0.002-0.268-0.021-0.541-0.088-0.797c-0.23-0.917-0.998-1.457-2.029-1.457c-16.154,0-32.313,0-48.469,0.003
		c-0.229,0-0.461,0.032-0.684,0.094c-0.883,0.233-1.404,0.948-1.426,1.998c-0.021,1.125-0.002,2.251-0.01,3.377
		c0,0.211,0.086,0.302,0.293,0.288c0.104-0.01,0.213-0.001,0.316-0.001C108.951,175.868,117.535,175.868,126.117,175.868z"/>
</g>
<g>
	<rect x="93.168" y="227.266" fill="#ECECEC" fill-opacity="0" width="65.889" height="63.711"/>
	<g>
		<path fill="#F5F5F5" d="M124.555,237.795c-0.248,0.392-0.466,0.739-0.688,1.085c-0.877,1.357-1.746,2.725-2.633,4.078
			c-0.248,0.377-0.354,0.776-0.293,1.219c0.027,0.188,0.077,0.406,0.196,0.538c0.838,0.93,2.041,1.139,2.797-0.064
			c1.937-3.083,3.919-6.136,5.872-9.208c0.621-0.979,0.451-1.654-0.575-2.189c-2.469-1.289-4.95-2.549-7.429-3.817
			c-0.739-0.379-1.49-0.739-2.219-1.144c-0.873-0.482-1.855-0.021-2.141,0.814c-0.324,0.986-0.129,1.604,0.813,2.076
			c1.668,0.845,3.34,1.689,5.009,2.538c0.108,0.058,0.215,0.123,0.319,0.183c-0.002,0.033-0.006,0.063-0.01,0.1
			c-0.343,0.053-0.683,0.104-1.021,0.146c-4.69,0.579-8.973,2.245-12.795,5.013c-5.522,3.991-9.178,9.302-10.922,15.898
			c-0.451,1.708-0.75,3.443-0.813,5.216c-0.031,1.018-0.104,2.034-0.052,3.046c0.165,3.288,0.827,6.479,2.142,9.503
			c3.318,7.646,8.898,12.905,16.736,15.759c1.896,0.688,3.854,1.127,5.852,1.357c1.146,0.137,2.301,0.229,3.447,0.211
			c5.374-0.069,10.371-1.479,14.922-4.363c4.447-2.821,7.861-6.596,10.229-11.302c1.313-2.604,2.18-5.357,2.609-8.25
			c0.25-1.67,0.395-3.349,0.326-5.031c-0.146-3.75-0.934-7.356-2.488-10.788c-1.566-3.458-3.769-6.46-6.553-9.029
			c-0.693-0.646-1.438-1.236-2.188-1.818c-0.604-0.47-1.282-0.549-1.984-0.201c-0.688,0.34-1.027,0.937-1.048,1.672
			c-0.019,0.646,0.313,1.149,0.813,1.571c0.961,0.813,1.941,1.609,2.82,2.508c3.352,3.416,5.471,7.492,6.395,12.188
			c0.271,1.383,0.396,2.776,0.431,4.19c0.122,5.062-1.202,9.711-4.015,13.898c-3.729,5.552-8.885,9.039-15.429,10.467
			c-2.112,0.461-4.261,0.598-6.403,0.46c-4.945-0.31-9.424-1.958-13.344-5.009c-4.794-3.729-7.824-8.575-9.055-14.535
			c-0.389-1.884-0.559-3.792-0.465-5.71c0.193-4.155,1.334-8.041,3.5-11.605c2.146-3.536,5.006-6.361,8.572-8.46
			c2.654-1.563,5.511-2.586,8.563-3.022c0.614-0.089,1.233-0.143,1.854-0.205C124.316,237.762,124.404,237.784,124.555,237.795z"/>
		<g>
			<circle fill="#F5F5F5" cx="130.257" cy="255.068" r="5.596"/>
			<g>
				<circle fill="#F5F5F5" cx="117.021" cy="263.605" r="5.595"/>
				<circle fill="#F5F5F5" cx="132.542" cy="270.652" r="5.595"/>
			</g>
		</g>
	</g>
</g>
<g>
	<rect x="93.168" y="373.259" fill="#ECECEC" fill-opacity="0" width="65.889" height="63.712"/>
	<g>
		<path fill="#F5F5F5" d="M97.389,392.781c0.118,0.069,0.241,0.14,0.362,0.203c1.791,0.978,3.58,1.946,5.369,2.925
			c7.289,3.972,14.586,7.938,21.864,11.921c0.779,0.426,1.479,0.433,2.263,0.01c6.396-3.462,12.799-6.906,19.194-10.354
			c2.849-1.529,5.688-3.063,8.535-4.594c0.694-0.375,1.146-0.922,1.129-1.729c-0.021-0.813-0.479-1.335-1.188-1.691
			c-2.834-1.432-5.656-2.871-8.485-4.311c-3.581-1.818-7.163-3.644-10.745-5.457c-2.773-1.41-5.555-2.822-8.335-4.228
			c-0.28-0.143-0.604-0.206-0.942-0.32c-0.328,0.111-0.666,0.189-0.973,0.346c-2.868,1.435-5.729,2.88-8.593,4.316
			c-5.288,2.654-10.576,5.313-15.864,7.97c-1.184,0.593-2.372,1.161-3.536,1.783C96.106,390.28,96.089,392.003,97.389,392.781z
			 M102.625,391.018c7.582-3.81,15.166-7.613,22.748-11.422c0.041-0.021,0.09-0.033,0.123-0.063c0.617-0.518,1.188-0.364,1.856-0.02
			c3.44,1.791,6.907,3.527,10.364,5.286c4.076,2.068,8.15,4.143,12.229,6.212c0.104,0.054,0.197,0.111,0.354,0.203
			c-0.135,0.094-0.225,0.172-0.321,0.229c-5.479,2.955-10.97,5.909-16.447,8.861c-2.345,1.269-4.688,2.521-7.024,3.794
			c-0.264,0.146-0.461,0.154-0.73,0.009c-4.561-2.492-9.125-4.979-13.689-7.469c-3.172-1.729-6.344-3.452-9.518-5.184
			c-0.098-0.054-0.188-0.116-0.35-0.224C102.406,391.138,102.514,391.075,102.625,391.018z"/>
		<path fill="#F5F5F5" d="M97.162,406.635c3.813,2.072,7.625,4.15,11.438,6.229c5.351,2.912,10.7,5.814,16.041,8.744
			c0.79,0.438,1.501,0.447,2.291,0.021c5.478-2.969,10.963-5.919,16.444-8.873c3.75-2.021,7.5-4.045,11.254-6.063
			c0.709-0.38,1.16-0.905,1.146-1.752c-0.017-0.813-0.463-1.32-1.153-1.675c-1.69-0.854-3.392-1.713-5.08-2.576
			c-0.207-0.104-0.373-0.111-0.58,0.003c-0.553,0.313-1.112,0.606-1.678,0.913c-0.627,0.339-1.252,0.682-1.918,1.038
			c1.563,0.798,3.073,1.564,4.661,2.375c-0.198,0.119-0.296,0.185-0.396,0.231c-4.506,2.431-9.01,4.854-13.521,7.284
			c-3.315,1.791-6.646,3.575-9.965,5.375c-0.256,0.139-0.455,0.143-0.701-0.011c-0.413-0.25-0.851-0.474-1.272-0.703
			c-7.301-3.979-14.604-7.95-21.899-11.931c-0.104-0.061-0.207-0.128-0.394-0.242c1.683-0.849,3.287-1.653,4.953-2.494
			c-0.146-0.088-0.229-0.141-0.31-0.185c-1.086-0.594-2.18-1.18-3.26-1.782c-0.224-0.123-0.394-0.117-0.604-0.009
			c-1.81,0.918-3.613,1.831-5.435,2.731c-0.688,0.341-1.095,0.874-1.117,1.629C96.089,405.7,96.479,406.264,97.162,406.635z"/>
		<path fill="#F5F5F5" d="M154.742,416.486c-1.637-0.814-3.275-1.626-4.928-2.419c-0.146-0.067-0.393-0.063-0.539,0.019
			c-0.916,0.473-1.818,0.972-2.727,1.46c-0.275,0.146-0.551,0.305-0.881,0.481c1.475,0.726,2.877,1.409,4.354,2.142
			c-0.225,0.133-0.35,0.211-0.479,0.277c-5.101,2.747-10.191,5.49-15.291,8.236c-2.726,1.468-5.442,2.931-8.162,4.396
			c-0.209,0.114-0.371,0.118-0.575,0c-0.438-0.256-0.896-0.487-1.341-0.73c-7.188-3.914-14.383-7.828-21.569-11.74
			c-0.22-0.119-0.431-0.249-0.737-0.429c1.577-0.72,3.063-1.396,4.604-2.095c-0.074-0.047-0.101-0.065-0.132-0.083
			c-1.188-0.649-2.375-1.309-3.569-1.941c-0.099-0.055-0.272-0.029-0.382,0.021c-1.729,0.786-3.452,1.582-5.176,2.376
			c-0.688,0.313-1.069,0.862-1.104,1.604c-0.026,0.759,0.336,1.332,1.009,1.694c4.075,2.225,8.151,4.44,12.229,6.666
			c5.084,2.771,10.174,5.525,15.248,8.313c0.841,0.461,1.583,0.442,2.419-0.01c7.545-4.086,15.104-8.148,22.65-12.222
			c1.713-0.927,3.43-1.843,5.137-2.771c0.668-0.361,1.007-0.938,0.968-1.715C155.736,417.305,155.367,416.799,154.742,416.486z"/>
	</g>
</g>
<g>
	<rect x="93.168" y="446.255" fill="#ECECEC" fill-opacity="0" width="65.889" height="63.712"/>
	<g>
		<path fill="#F5F5F5" d="M156.107,468.373c0-0.521-0.016-1.05-0.061-1.566c-0.117-1.321-0.775-2.325-1.865-3.063
			c-0.76-0.512-1.623-0.676-2.516-0.683c-2.14-0.015-4.271-0.004-6.4-0.004c-0.129,0-0.258,0-0.418,0c0-0.209,0-0.362,0-0.521
			c0-4.638,0-9.271,0-13.905c0-0.459,0-0.459-0.459-0.459c-12.188,0-24.377,0-36.564,0c-0.451,0-0.451,0-0.451,0.468
			c0,4.636,0,9.271,0,13.907c0,0.15,0,0.309,0,0.511c-0.188,0-0.326,0-0.457,0c-2.105,0-4.224-0.006-6.334,0.004
			c-0.36,0.003-0.732,0.028-1.095,0.105c-2.054,0.444-3.375,2.104-3.375,4.2c0,8.259-0.001,16.516,0.002,24.771
			c0,0.321,0.022,0.646,0.058,0.965c0.24,2.136,1.973,3.677,4.111,3.677c2.213,0.002,4.424,0,6.637,0.002
			c0.453,0,0.453,0,0.453,0.459c0,3.451,0,6.901,0,10.354c0,0.441,0,0.441,0.438,0.441c12.198,0,24.399,0,36.599,0
			c0.438,0,0.438,0,0.438-0.441c0-3.463,0.004-6.927-0.009-10.395c-0.002-0.337,0.086-0.438,0.429-0.436
			c2.257,0.017,4.515,0.02,6.771-0.002c0.404-0.004,0.828-0.069,1.213-0.2c1.729-0.585,2.854-2.063,2.855-4.101
			C156.115,484.439,156.111,476.406,156.107,468.373z M111.063,462.633c0-3.483,0-6.973,0-10.453c0-0.44,0-0.44,0.438-0.44
			c9.733-0.002,19.479-0.002,29.219,0c0.438,0,0.438,0,0.438,0.438c0,3.479,0,6.969,0,10.454c0,0.121,0,0.239,0,0.396
			c-10.029,0-20.039,0-30.097,0C111.063,462.873,111.063,462.755,111.063,462.633z M141.158,503.982
			c0,0.434-0.002,0.438-0.447,0.438c-9.729,0-19.461,0-29.188,0c-0.455,0-0.457-0.007-0.457-0.457c0-6.625,0-13.25,0-19.875
			c0-0.443,0-0.443,0.464-0.443c4.86,0,9.726,0,14.579,0c4.871,0,9.742,0,14.612,0c0.438,0,0.438,0.003,0.438,0.435
			C141.158,490.712,141.158,497.347,141.158,503.982z M152.419,492.438c0,0.61-0.104,0.719-0.726,0.719c-2.134,0-4.271,0-6.397,0
			c-0.448,0-0.448-0.002-0.448-0.465c0-4.076,0-8.154,0-12.229c0-0.447,0-0.447-0.438-0.447c-12.199,0-24.396,0-36.6,0
			c-0.438,0-0.438,0-0.438,0.447c0,4.073,0,8.149,0,12.229c0,0.463,0,0.465-0.451,0.465c-2.146,0-4.289,0-6.438,0
			c-0.565,0-0.688-0.119-0.688-0.685c0-8.356,0-16.715,0-25.069c0-0.56,0.103-0.652,0.672-0.652c8.549,0,17.096,0,25.643,0
			c8.516,0,17.023,0,25.539,0c0.729,0,0.771,0.052,0.771,0.785C152.419,475.837,152.419,484.136,152.419,492.438z"/>
		<path fill="#F5F5F5" d="M144.917,470.635c-0.658-0.007-1.315-0.011-1.979,0c-0.957,0.013-1.802,0.881-1.78,1.82
			c0.021,0.975,0.846,1.794,1.807,1.805c0.324,0.002,0.646,0,0.973,0s0.646,0.002,0.973,0c0.979-0.007,1.83-0.862,1.813-1.821
			C146.705,471.467,145.884,470.642,144.917,470.635z"/>
	</g>
</g>
<g>
	<rect x="93.168" y="519.249" fill="#ECECEC" fill-opacity="0" width="65.889" height="63.713"/>
	<g>
		<path fill="#F5F5F5" d="M141.123,577.939c0-0.504,0-0.504-0.521-0.504c-8.854,0-17.713,0-26.567,0
			c-4.603,0-9.203-0.004-13.808,0.009c-0.33,0.001-0.438-0.08-0.431-0.423c0.021-1.123,0.027-2.248,0.002-3.372
			c-0.022-1.057,0.455-1.765,1.382-2.201c2.784-1.313,5.569-2.631,8.354-3.943c2.813-1.329,5.641-2.646,8.439-4
			c1.328-0.646,2.002-1.782,2.053-3.229c0.037-1.129-0.438-2.08-1.275-2.854c-0.588-0.539-1.178-1.093-1.688-1.699
			c-1.198-1.45-2.028-3.118-2.688-4.875c-0.869-2.313-1.436-4.694-1.477-7.168c-0.051-3.104-0.021-6.213-0.002-9.318
			c0.002-0.467,0.09-0.945,0.225-1.396c0.355-1.203,1.09-2.192,1.936-3.104c1.479-1.593,3.234-2.799,5.205-3.699
			c2.445-1.122,5-1.681,7.691-1.229c3.869,0.645,7.111,2.438,9.672,5.415c1.039,1.209,1.725,2.578,1.693,4.253
			c-0.043,2.854-0.002,5.703-0.021,8.557c-0.004,0.846-0.049,1.688-0.137,2.525c-0.252,2.388-0.873,4.68-1.867,6.865
			c-0.848,1.863-1.963,3.539-3.58,4.846c-0.863,0.698-1.344,1.634-1.354,2.744c-0.021,1.564,0.697,2.742,2.104,3.438
			c1.742,0.861,3.513,1.683,5.271,2.517c0.104,0.051,0.207,0.08,0.353,0.135c0.302-1.227,0.592-2.406,0.888-3.604
			c-1.675-0.783-3.31-1.557-5.005-2.353c0.15-0.138,0.238-0.208,0.316-0.288c0.604-0.604,1.252-1.179,1.801-1.83
			c1.574-1.865,2.642-4.021,3.422-6.316c0.853-2.514,1.4-5.084,1.427-7.74c0.028-3.387,0.01-6.771,0.002-10.153
			c0-0.347-0.039-0.691-0.104-1.031c-0.396-2.053-1.453-3.765-2.813-5.305c-1.635-1.851-3.584-3.279-5.771-4.396
			c-2.168-1.104-4.455-1.828-6.884-2.017c-2.047-0.155-4.067,0.063-6.034,0.683c-3.961,1.24-7.328,3.372-9.884,6.688
			c-1.463,1.896-2.258,4.021-2.194,6.47c0.072,2.813,0.006,5.636,0.022,8.45c0.004,0.796,0.045,1.599,0.146,2.388
			c0.283,2.244,0.826,4.435,1.65,6.539c1.139,2.907,2.686,5.543,5.098,7.6c0.066,0.061,0.123,0.134,0.213,0.229
			c-0.131,0.075-0.23,0.146-0.344,0.195c-1.361,0.645-2.727,1.278-4.086,1.926c-4.063,1.917-8.129,3.831-12.188,5.755
			c-0.938,0.441-1.809,0.992-2.564,1.706c-0.641,0.603-1.076,1.3-1.076,2.211c-0.002,1.717-0.016,3.435,0.004,5.146
			c0.016,1.104,0.336,2.101,1.16,2.883c0.801,0.761,1.762,1.029,2.854,1.027c13.491-0.014,26.983-0.009,40.479-0.009
			c0.062,0,0.114-0.007,0.174,0.001c0.269,0.029,0.338-0.097,0.334-0.347C141.117,579.794,141.123,578.865,141.123,577.939z"/>
		<path fill="#F5F5F5" d="M156.1,571.634c-0.132-1.047-0.867-1.703-1.931-1.706c-1.703-0.005-3.407-0.001-5.11-0.001
			c-0.134,0-0.267,0-0.425,0c0-0.2,0-0.338,0-0.479c0-1.525,0.005-3.062-0.004-4.59c0-0.313-0.022-0.624-0.065-0.935
			c-0.133-0.943-1.142-1.656-2.062-1.471c-0.971,0.201-1.56,0.92-1.562,1.933c-0.004,1.704-0.002,3.408-0.002,5.106
			c0,0.139,0,0.271,0,0.43c-0.194,0-0.338,0-0.479,0c-1.701,0-3.405-0.01-5.106,0.002c-1.028,0.005-1.791,0.706-1.92,1.736
			c-0.093,0.733,0.526,1.611,1.328,1.826c0.297,0.081,0.612,0.111,0.926,0.113c1.604,0.012,3.196,0.006,4.799,0.006
			c0.14,0,0.271,0,0.453,0c0,0.203,0,0.344,0,0.479c0,1.646-0.004,3.293,0.004,4.938c0.002,0.241,0.029,0.486,0.091,0.721
			c0.17,0.675,0.801,1.234,1.437,1.312c0.854,0.098,1.563-0.215,1.894-0.923c0.163-0.354,0.254-0.773,0.262-1.169
			c0.026-1.638,0.017-3.271,0.017-4.9c0-0.137,0-0.271,0-0.45c0.178,0,0.313,0,0.444,0c1.402,0,2.808,0.006,4.205-0.003
			c0.433-0.003,0.854-0.024,1.281-0.063C155.473,573.462,156.21,572.526,156.1,571.634z"/>
	</g>
</g>
<g>
	<rect x="93.168" y="592.244" fill="#ECECEC" fill-opacity="0" width="65.889" height="63.711"/>
	<g>
		<path fill="#F5F5F5" d="M142.107,644.607c-0.711-0.689-1.589-1.104-2.441-1.57c-3.744-2.055-7.478-4.131-11.213-6.194
			c-0.156-0.093-0.308-0.19-0.5-0.313c0.125-0.117,0.223-0.195,0.31-0.287c0.56-0.586,1.178-1.127,1.653-1.771
			c2.396-3.193,3.373-6.9,3.566-10.807c0.148-3.053,0.035-6.111,0.036-9.175c0-0.229,0.009-0.466-0.024-0.688
			c-0.252-1.764-1.056-3.271-2.174-4.617c-1.633-1.979-3.66-3.429-6.004-4.438c-2.574-1.104-5.25-1.55-8.025-1.021
			c-3.678,0.699-6.793,2.438-9.299,5.229c-1.67,1.859-2.594,4.009-2.508,6.564c0.066,2.048,0,4.102,0.02,6.149
			c0.013,0.813,0.063,1.641,0.131,2.452c0.15,1.828,0.582,3.604,1.189,5.326c0.781,2.217,1.855,4.269,3.492,5.981
			c0.34,0.359,0.65,0.746,0.993,1.142c-0.017,0.017-0.101,0.07-0.19,0.12c-3.306,1.794-6.613,3.581-9.916,5.384
			c-1.209,0.659-2.42,1.314-3.586,2.045c-0.789,0.492-1.467,1.179-1.482,2.187c-0.028,1.678-0.03,3.354,0.064,5.031
			c0.09,1.561,1.459,2.765,3.002,2.766c13.563,0.003,27.131,0.002,40.693-0.001c0.682,0,1.292-0.229,1.831-0.646
			c0.856-0.666,1.229-1.571,1.235-2.636c0.021-1.396-0.004-2.803,0.012-4.204C142.974,645.814,142.679,645.16,142.107,644.607z
			 M138.83,650.489c-4.604-0.011-9.221-0.007-13.832-0.007c-1.813,0-3.637,0-5.455,0c-6.4,0-12.813,0.001-19.219,0
			c-0.521,0-0.521,0-0.521-0.525c0-0.864,0.01-1.732-0.009-2.604c-0.006-0.271,0.088-0.427,0.314-0.551
			c1.568-0.852,3.135-1.699,4.699-2.555c2.77-1.502,5.538-2.991,8.301-4.506c1.252-0.686,1.916-1.781,1.955-3.188
			c0.029-1.091-0.373-2.087-1.232-2.8c-1.774-1.475-2.836-3.396-3.584-5.521c-0.713-2.029-1.104-4.118-1.067-6.286
			c0.036-2.374,0.022-4.75-0.002-7.124c-0.013-0.82,0.22-1.55,0.644-2.229c1.08-1.74,2.623-2.979,4.389-3.959
			c1.392-0.773,2.873-1.297,4.459-1.438c1.701-0.146,3.361,0.089,4.957,0.745c2.076,0.854,3.854,2.111,5.207,3.92
			c0.701,0.938,1.104,1.964,1.084,3.187c-0.053,2.521,0.006,5.052-0.021,7.571c-0.024,2.7-0.545,5.311-1.694,7.766
			c-0.58,1.231-1.367,2.322-2.435,3.214c-2.149,1.791-1.862,4.854,0.578,6.212c3.896,2.167,7.793,4.323,11.688,6.479
			c0.32,0.186,0.653,0.347,0.984,0.511c0.201,0.102,0.271,0.243,0.268,0.476c-0.014,0.927-0.021,1.854,0.006,2.779
			C139.298,650.423,139.164,650.49,138.83,650.489z"/>
		<path fill="#F5F5F5" d="M156.109,637.408c0.027-1.045-0.381-1.858-1.209-2.438c-0.748-0.521-1.551-0.964-2.35-1.401
			c-3.743-2.056-7.494-4.097-11.242-6.144c-0.125-0.067-0.24-0.153-0.377-0.243c0.068-0.081,0.1-0.13,0.143-0.165
			c1.676-1.392,2.857-3.144,3.729-5.119c1.127-2.563,1.772-5.258,1.839-8.06c0.063-2.756-0.018-5.521,0.027-8.271
			c0.023-1.646-0.453-3.126-1.338-4.479c-1.73-2.667-4.166-4.502-7.059-5.751c-2.471-1.065-5.047-1.521-7.727-1.068
			c-3.506,0.583-6.521,2.162-9.063,4.637c-0.22,0.218-0.422,0.446-0.689,0.734c0.646,0.039,1.183,0.051,1.705,0.11
			c0.834,0.097,1.67,0.205,2.496,0.354c0.275,0.05,0.477,0.021,0.699-0.142c2.416-1.72,5.108-2.449,8.061-2.146
			c1.533,0.158,2.973,0.685,4.314,1.436c1.52,0.843,2.844,1.909,3.889,3.308c0.703,0.938,1.111,1.961,1.086,3.182
			c-0.055,2.198-0.026,4.4-0.012,6.604c0.014,1.394-0.07,2.771-0.353,4.137c-0.632,3.086-1.688,5.938-4.229,8.027
			c-0.861,0.711-1.229,1.727-1.181,2.818c0.065,1.372,0.735,2.44,1.961,3.112c3.007,1.646,6.015,3.285,9.021,4.925
			c1.197,0.648,2.398,1.306,3.611,1.929c0.396,0.204,0.574,0.438,0.551,0.908c-0.043,0.813-0.012,1.619-0.014,2.435
			c0,0.462,0,0.464-0.457,0.465c-2.166,0.001-4.332,0-6.498,0c-0.125,0-0.248,0-0.396,0c0.216,0.257,0.416,0.477,0.594,0.714
			c0.563,0.769,0.801,1.661,1.037,2.56c0.068,0.272,0.191,0.361,0.479,0.359c1.91-0.012,3.821,0.01,5.731-0.019
			c0.418-0.007,0.856-0.098,1.243-0.259c1.334-0.563,1.929-1.644,1.953-3.043C156.119,640.073,156.074,638.74,156.109,637.408z"/>
	</g>
</g>
<g>
	<rect x="93.168" y="738.238" fill="#ECECEC" fill-opacity="0" width="65.889" height="63.711"/>
	<g>
		<path fill="#F5F5F5" d="M156.109,748.753c0-0.285-0.021-0.574-0.068-0.856c-0.295-1.767-1.873-3.093-3.664-3.093
			c-8.758-0.002-17.516-0.002-26.271-0.002c-8.748,0-17.494,0-26.241,0.008c-0.353,0-0.714,0.058-1.052,0.15
			c-1.543,0.446-2.698,1.807-2.698,3.773c0,14.028,0,28.063,0.002,42.089c0,0.396,0.024,0.792,0.053,1.188
			c0.11,1.783,1.683,3.373,3.666,3.373c17.519,0.004,35.029,0.003,52.545-0.001c0.269,0,0.535-0.034,0.793-0.097
			c1.611-0.354,2.941-1.729,2.941-3.854C156.111,777.208,156.113,762.979,156.109,748.753z M100.25,748.445
			c9.176,0,18.354,0,27.521,0c8.014,0,16.025,0,24.039,0c0.068,0,0.139-0.001,0.207,0c0.396,0.002,0.396,0.003,0.396,0.396
			c0,11.229,0,22.457,0,33.688c0,0.104,0,0.213,0,0.317c-0.037,0.021-0.074,0.037-0.111,0.058c-0.145-0.163-0.275-0.333-0.426-0.483
			c-2.465-2.521-4.937-5.037-7.396-7.56c-1.014-1.036-2.018-2.081-3.035-3.111c-0.84-0.854-1.795-0.896-2.697-0.118
			c-2.229,1.933-4.447,3.864-6.666,5.813c-0.188,0.168-0.307,0.177-0.482-0.008c-1.016-1.016-2.033-2.013-3.055-3.021
			c-3.541-3.508-7.078-7.017-10.619-10.521c-0.602-0.597-1.197-1.188-1.803-1.779c-0.703-0.688-1.838-0.709-2.554-0.017
			c-1.726,1.672-3.442,3.352-5.164,5.021c-2.782,2.707-5.563,5.413-8.347,8.119c-0.055,0.058-0.119,0.099-0.229,0.185
			c-0.016-0.149-0.021-0.255-0.021-0.354c-0.002-8.747-0.002-17.494-0.002-26.242C99.809,748.446,99.809,748.445,100.25,748.445z
			 M152.146,791.74c-0.107-0.007-0.217,0-0.326,0c-8.57,0-17.141,0-25.709,0c-8.578,0-17.158,0-25.738,0
			c-0.088,0-0.179-0.007-0.268,0.001c-0.234,0.021-0.303-0.083-0.303-0.313c0.006-3.534,0.002-7.067,0.015-10.604
			c0-0.146,0.104-0.338,0.22-0.445c1.83-1.791,3.67-3.571,5.508-5.354c1.703-1.651,3.408-3.305,5.11-4.954
			c1.341-1.3,2.681-2.6,4.017-3.897c0.16-0.156,0.287-0.198,0.438-0.002c0.021,0.027,0.062,0.059,0.084,0.086
			c5.063,5.061,10.146,10.104,15.188,15.188c0.906,0.916,2.041,0.633,2.687,0.053c2.082-1.87,4.154-3.753,6.229-5.634
			c0.597-0.538,0.582-0.537,1.146,0.041c1.569,1.617,3.146,3.229,4.72,4.842c2.385,2.445,4.771,4.896,7.146,7.343
			c0.064,0.066,0.111,0.188,0.111,0.283c0.009,1.032,0.002,2.064,0.012,3.103C152.419,791.66,152.354,791.757,152.146,791.74z"/>
		<path fill="#F5F5F5" d="M139.25,763.458c1.893,0.073,3.662-1.521,3.689-3.608c0.031-2.229-1.836-3.738-3.662-3.745
			c-1.963-0.009-3.707,1.579-3.721,3.658C135.542,761.967,137.414,763.546,139.25,763.458z"/>
	</g>
</g>
<g>
	<rect x="93.168" y="300.261" fill="#ECECEC" fill-opacity="0" width="65.889" height="63.712"/>
	<path fill="#F5F5F5" d="M141.363,334.273c-1.484-1.146-3.238-2.135-5.029-2.655c-4.832-1.413-9.737-2.565-14.637-3.771
		c-2.049-0.506-4.088-1.008-5.414-2.818c-0.398-0.546-0.768-1.265-0.791-1.915c-0.131-3.734,2.32-6.129,5.418-6.979
		c3-0.823,6.146-0.615,9.229-0.21c1.766,0.231,3.25,1.139,4.012,2.719c0.606,1.26,0.83,2.72,1.123,4.109
		c0.188,0.896,0.529,1.437,1.535,1.41c1.483-0.034,2.971-0.037,4.453,0.004c0.735,0.021,1.118-0.26,1.129-0.983
		c0.014-1.018,0.108-2.048-0.022-3.047c-0.47-3.493-1.938-6.386-5.179-8.142c-1.937-1.053-3.926-1.922-6.137-2.205
		c-0.878-0.112-1.474-0.483-1.328-1.556c0.088-0.646,0.043-1.313,0.01-1.966c-0.047-0.896-0.539-1.394-1.446-1.404
		c-1.479-0.021-2.968-0.023-4.447-0.021c-1.114,0.001-1.567,0.435-1.6,1.537c-0.021,0.968-0.009,1.936-0.011,2.896
		c-0.032,0.04-0.069,0.076-0.11,0.108c-0.226,0.07-0.449,0.147-0.679,0.216c-1.892,0.55-3.856,0.925-5.659,1.688
		c-2.824,1.188-5.003,3.209-6.396,5.997c-1.141,2.278-1.252,4.711-1.229,7.201c0.023,2.964,1.389,5.094,3.77,6.651
		c3.242,2.127,6.961,2.95,10.668,3.784c3.457,0.777,6.932,1.479,10.373,2.318c0.867,0.211,1.746,0.671,2.436,1.236
		c1.768,1.461,1.496,3.473,0.951,5.319c-0.744,2.521-2.727,3.93-5.174,4.521c-3.311,0.804-6.678,0.769-10.035,0.202
		c-2.381-0.396-6.031-3.514-5.512-6.66c0.084-0.518-0.088-1.087-0.195-1.618c-0.143-0.696-0.57-1.036-1.32-1.021
		c-1.588,0.029-3.178,0.044-4.766-0.006c-0.83-0.024-1.137,0.438-1.188,1.104c-0.354,4.646,1.168,8.521,4.941,11.331
		c2.313,1.723,4.949,2.75,7.863,2.969c0.838,0.063,1.342,0.451,1.271,1.394c-0.043,0.584-0.021,1.174-0.006,1.762
		c0.031,1.018,0.521,1.566,1.506,1.598c1.48,0.035,2.969,0.034,4.451-0.002c0.971-0.022,1.502-0.604,1.539-1.578
		c0.023-0.619,0.021-1.242,0.002-1.863c-0.021-0.646,0.189-1.021,0.896-1.118c1.186-0.163,2.379-0.325,3.531-0.622
		c2.729-0.697,5.241-1.771,6.973-4.188c1.932-2.7,2.91-5.707,2.971-9.013C144.156,338.367,143.479,335.906,141.363,334.273z"/>
</g>
<g>
	<rect x="93.168" y="665.24" fill="#ECECEC" fill-opacity="0" width="65.889" height="63.712"/>
	<g>
		<path fill="#F5F5F5" d="M156.107,683.198c0-0.271-0.027-0.548-0.074-0.813c-0.32-1.841-1.982-3.075-3.727-3.07
			c-9.24,0.021-18.479,0.007-27.721,0.014c-0.26,0-0.439-0.071-0.623-0.259c-1.709-1.723-3.433-3.435-5.146-5.148
			c-0.146-0.149-0.299-0.229-0.521-0.229c-6.183,0.006-12.356,0.004-18.539,0.009c-0.252,0-0.512,0.035-0.758,0.1
			c-1.646,0.392-2.894,1.768-2.896,3.791c-0.004,13.016-0.002,26.021,0.002,39.039c0,0.277,0.03,0.563,0.082,0.846
			c0.336,1.838,1.965,3.048,3.746,3.045c8.729-0.021,17.459-0.009,26.188-0.009c8.725,0,17.438,0,26.158-0.003
			c0.184,0,0.361,0.014,0.539-0.019c1.932-0.297,3.279-1.774,3.279-3.875C156.113,705.473,156.111,694.341,156.107,683.198z
			 M152.41,716.427c0,0.43,0,0.431-0.432,0.431c-8.623,0-17.248,0-25.873,0c-8.578,0-17.154,0-25.732,0.001
			c-0.104,0-0.209-0.008-0.313,0c-0.18,0.015-0.271-0.053-0.25-0.242c0.006-0.063,0-0.133,0-0.198c0-12.881,0-25.763,0-38.644
			c0-0.436,0-0.436,0.426-0.436c5.439,0,10.883,0.002,16.322-0.006c0.246,0,0.42,0.068,0.598,0.243
			c1.76,1.728,3.531,3.438,5.289,5.16c0.182,0.183,0.365,0.229,0.605,0.229c9.602-0.004,19.201-0.004,28.803-0.003
			c0.654,0.001,0.557-0.07,0.557,0.561C152.412,694.491,152.41,705.462,152.41,716.427z"/>
		<path fill="#F5F5F5" d="M133.925,701.201c-0.76-0.589-1.658-1.095-2.575-1.357c-2.478-0.729-4.992-1.314-7.5-1.938
			c-1.05-0.259-2.095-0.516-2.772-1.439c-0.205-0.279-0.394-0.646-0.404-0.98c-0.063-1.914,1.188-3.141,2.773-3.575
			c1.538-0.423,3.148-0.313,4.729-0.104c0.906,0.119,1.666,0.582,2.061,1.393c0.313,0.646,0.43,1.396,0.575,2.105
			c0.099,0.461,0.271,0.731,0.786,0.724c0.761-0.019,1.521-0.02,2.277,0.002c0.377,0.015,0.572-0.131,0.58-0.505
			c0.006-0.521,0.059-1.05-0.016-1.563c-0.238-1.789-0.994-3.271-2.65-4.172c-0.992-0.535-2.014-0.98-3.146-1.132
			c-0.45-0.06-0.755-0.247-0.683-0.796c0.045-0.329,0.021-0.672,0.006-1.008c-0.023-0.459-0.275-0.713-0.74-0.72
			c-0.762-0.016-1.521-0.02-2.28-0.018c-0.569,0.002-0.804,0.227-0.815,0.787c-0.012,0.495-0.004,0.989-0.006,1.485
			c-0.019,0.021-0.035,0.039-0.059,0.058c-0.113,0.037-0.229,0.075-0.348,0.108c-0.971,0.281-1.979,0.476-2.899,0.863
			c-1.446,0.606-2.563,1.646-3.276,3.069c-0.584,1.169-0.645,2.412-0.631,3.688c0.02,1.521,0.711,2.606,1.936,3.408
			c1.656,1.09,3.563,1.512,5.466,1.938c1.771,0.396,3.552,0.763,5.313,1.188c0.442,0.104,0.896,0.344,1.248,0.635
			c0.903,0.748,0.771,1.777,0.485,2.729c-0.381,1.291-1.396,2.014-2.647,2.313c-1.692,0.41-3.422,0.396-5.146,0.104
			c-1.22-0.203-3.09-1.802-2.821-3.411c0.043-0.268-0.045-0.561-0.103-0.831c-0.073-0.357-0.292-0.53-0.679-0.523
			c-0.813,0.021-1.629,0.022-2.438-0.002c-0.426-0.014-0.583,0.228-0.606,0.566c-0.183,2.38,0.601,4.364,2.535,5.806
			c1.187,0.883,2.532,1.409,4.026,1.521c0.431,0.029,0.688,0.229,0.649,0.715c-0.021,0.299-0.014,0.604-0.002,0.898
			c0.019,0.521,0.269,0.808,0.771,0.815c0.764,0.021,1.521,0.021,2.281-0.001c0.497-0.014,0.771-0.312,0.789-0.811
			c0.013-0.316,0.012-0.642,0.001-0.956c-0.015-0.328,0.099-0.521,0.46-0.571c0.604-0.083,1.219-0.167,1.813-0.317
			c1.396-0.354,2.688-0.907,3.568-2.146c0.986-1.385,1.492-2.925,1.521-4.614C135.356,703.302,135.009,702.037,133.925,701.201z"/>
	</g>
</g>
<g>
	<rect x="49.621" y="851.619" fill="#D6D6D6" fill-opacity="0" width="30" height="29.998"/>
	<path fill="#F5F5F5" d="M63.306,868.656c1.946-2.754,6.034-8.185,7.013-9.401c0.896-0.82,1.861-0.86,2.6-0.148
		c0.716,0.688,0.713,1.729-0.057,2.604c-3.57,5.632-4.275,7.479-7.518,11.969c-0.978,1.353-2.953,1.243-4.021-0.063
		c-1.731-2.125-3.4-4.301-5.054-6.482c-0.745-0.984-0.58-2.255,0.283-3.014c0.924-0.813,2.17-0.771,3.083,0.158
		C60.941,865.604,61.955,867.229,63.306,868.656z"/>
</g>
<g>
	<rect x="14.879" y="851.619" fill="#D6D6D6" fill-opacity="0" width="30" height="29.998"/>
	<path fill="#DF007C" d="M28.565,868.656c1.947-2.754,6.035-8.185,7.014-9.401c0.896-0.82,1.861-0.86,2.605-0.148
		c0.715,0.688,0.711,1.729-0.064,2.604c-3.563,5.632-4.27,7.479-7.516,11.969c-0.979,1.353-2.953,1.243-4.021-0.063
		c-1.732-2.125-3.402-4.301-5.061-6.482c-0.746-0.984-0.58-2.255,0.283-3.014c0.924-0.813,2.17-0.771,3.082,0.158
		C26.2,865.605,27.213,867.23,28.565,868.656z"/>
</g>
<path fill="#E3228D" d="M33.072,828.558l8.084-8.083c0.619-0.619,0.619-1.625,0-2.244c-0.619-0.618-1.625-0.618-2.246,0
	l-8.082,8.082l-8.083-8.082c-0.619-0.618-1.625-0.618-2.245,0c-0.619,0.619-0.619,1.625,0,2.244l8.083,8.083l-8.041,8.041
	c-0.62,0.619-0.62,1.625,0,2.244s1.625,0.619,2.245,0l8.041-8.041l8.041,8.041c0.619,0.619,1.625,0.619,2.244,0
	c0.621-0.619,0.621-1.625,0-2.244L33.072,828.558z"/>
<path fill="#BA0003" d="M39.292,914.563h4.734v18.939h-4.734V914.563z M39.292,938.237h4.734v4.734l-4.734,0.036V938.237z
	 M67.463,944.964l-24.26-43.688c-0.318-0.563-0.91-0.916-1.545-0.916c-0.634,0-1.224,0.352-1.541,0.916l-24.26,43.688
	c-0.318,0.563-0.318,1.265,0,1.828c0.315,0.563,0.907,0.913,1.54,0.913H65.92c0.633,0,1.225-0.352,1.543-0.913
	C67.78,946.227,67.78,945.525,67.463,944.964z M71.487,948.981c-1.201,2.14-3.447,3.461-5.865,3.461H17.62
	c-2.422,0-4.668-1.323-5.859-3.454c-1.163-2.072-1.163-4.647,0.003-6.729l24-43.188c1.19-2.123,3.436-3.442,5.855-3.442
	c2.412,0,4.652,1.313,5.854,3.435l24.004,43.195C72.641,944.333,72.643,946.906,71.487,948.981z"/>
<path fill="#4F9937" d="M114.393,931.242c6.897-9.755,21.379-28.986,24.849-33.313c3.172-2.905,6.59-3.047,9.229-0.528
	c2.528,2.438,2.519,6.119-0.228,9.229c-12.623,19.943-15.129,26.491-26.627,42.395c-3.471,4.787-10.462,4.402-14.242-0.229
	c-6.138-7.527-12.053-15.235-17.93-22.977c-2.643-3.49-2.055-7.979,1.003-10.664c3.272-2.875,7.686-2.744,10.918,0.563
	C106.014,920.436,109.602,926.193,114.393,931.242z"/>
<path fill="#DF007C" d="M63.308,828.534l8.092-8.093c0.635-0.634,0.635-1.662,0-2.298c-0.635-0.635-1.664-0.635-2.297,0
	l-9.192,9.193c-0.333,0.331-0.487,0.771-0.472,1.202c-0.011,0.432,0.144,0.862,0.472,1.189l9.192,9.193
	c0.635,0.635,1.664,0.635,2.297,0c0.635-0.637,0.635-1.664,0-2.301L63.308,828.534z"/>
<g>
	<rect x="15.883" y="977.238" fill="#ECECEC" fill-opacity="0" width="65.889" height="63.711"/>
	<path fill="#DC007A" d="M76.734,998.745H65.657c1.528-1.675,2.353-3.72,2.353-5.896c0-5.225-4.797-9.476-10.693-9.476
		c-3.483,0-6.743,1.548-8.731,4.092c-1.993-2.544-5.256-4.092-8.743-4.092c-5.894,0-10.689,4.251-10.689,9.476
		c0,2.142,0.846,4.221,2.365,5.896H20.432c-1.075,0-1.949,0.806-1.949,1.795v9.61c0,0.991,0.874,1.798,1.949,1.798h0.235v18.851
		c0,3.245,0.434,3.584,1.856,3.584h52.022c1.497,0,1.954-0.363,1.954-3.687v-18.643l0.341-0.104
		c1.027-0.051,1.846-0.837,1.846-1.796v-9.611C78.686,999.552,77.81,998.745,76.734,998.745z M50.535,992.849
		c0-3.246,3.042-5.886,6.781-5.886c3.746,0,6.793,2.64,6.793,5.886c0,3.252-3.044,5.896-6.786,5.896h-6.788V992.849z
		 M39.842,986.963c3.748,0,6.797,2.64,6.797,5.886v5.896h-6.797c-3.746,0-6.793-2.645-6.793-5.896
		C33.049,989.603,36.096,986.963,39.842,986.963z M46.64,1031.44H24.572v-7.284H46.64V1031.44z M24.572,1020.566v-8.614h22.063
		v8.614H24.572z M72.595,1031.44h-22.06v-7.284h22.06V1031.44z M72.595,1020.566h-22.06v-8.614h22.06V1020.566z M74.78,1008.362
		H54.484h-3.949H46.64h-5.624H22.389v-6.027h18.627h5.624h3.896h3.949H74.78V1008.362z"/>
</g>
<rect x="93.168" y="977.238" fill="#ECECEC" fill-opacity="0" width="65.889" height="63.711"/>
<path fill="#F5F5F5" d="M154.019,998.745h-11.077c1.528-1.675,2.353-3.72,2.353-5.896c0-5.225-4.797-9.476-10.693-9.476
	c-3.483,0-6.742,1.548-8.73,4.092c-1.993-2.544-5.257-4.092-8.743-4.092c-5.894,0-10.689,4.251-10.689,9.476
	c0,2.142,0.847,4.221,2.365,5.896H97.717c-1.075,0-1.948,0.806-1.948,1.795v9.61c0,0.991,0.873,1.798,1.948,1.798h0.235v18.851
	c0,3.245,0.434,3.584,1.855,3.584h52.021c1.498,0,1.954-0.363,1.954-3.687v-18.643l0.341-0.104c1.027-0.051,1.846-0.837,1.846-1.796
	v-9.611C155.97,999.552,155.095,998.745,154.019,998.745z M127.82,992.849c0-3.246,3.043-5.886,6.781-5.886
	c3.746,0,6.793,2.64,6.793,5.886c0,3.252-3.044,5.896-6.785,5.896h-6.789V992.849z M117.127,986.963c3.748,0,6.798,2.64,6.798,5.886
	v5.896h-6.798c-3.746,0-6.794-2.645-6.794-5.896C110.333,989.603,113.381,986.963,117.127,986.963z M123.925,1031.44h-22.068v-7.284
	h22.068V1031.44z M101.857,1020.566v-8.614h22.063v8.614H101.857z M149.88,1031.44H127.82v-7.284h22.061V1031.44z M149.88,1020.566
	H127.82v-8.614h22.061V1020.566z M152.065,1008.362h-20.296h-3.949h-3.895h-5.624H99.673v-6.027h18.628h5.624h3.895h3.949h20.296
	V1008.362z"/>
</svg>
