<svg xmlns="http://www.w3.org/2000/svg" id="Capa_1" viewBox="0 0 186.3 158"><style>.st3{fill:#1d1d1b}</style><g fill="#d1d1d1"><path fill-opacity="0" d="M49.6 46.6h30v30h-30z"/><path d="M63.3 63.7c1.9-2.8 6-8.2 7-9.4.9-.8 1.9-.9 2.6-.1.7.7.7 1.7-.1 2.6-3.6 5.6-4.3 7.5-7.5 12-1 1.4-3 1.2-4-.1-1.7-2.1-3.4-4.3-5.1-6.5-.7-1-.6-2.3.3-3 .9-.8 2.2-.8 3.1.2 1.3 1.2 2.4 2.8 3.7 4.3z"/></g><path fill="#1d1d1b" fill-opacity="0" d="M14.9 46.6h30v30h-30z"/><path d="M28.6 63.7c1.9-2.8 6-8.2 7-9.4.9-.8 1.9-.9 2.6-.1.7.7.7 1.7-.1 2.6-3.6 5.6-4.3 7.5-7.5 12-1 1.4-3 1.2-4-.1-1.7-2.1-3.4-4.3-5.1-6.5-.7-1-.6-2.3.3-3 .9-.8 2.2-.8 3.1.2 1.3 1.2 2.3 2.8 3.7 4.3zM33.1 23.6l8.1-8.1c.6-.6.6-1.6 0-2.2-.6-.6-1.6-.6-2.2 0l-8.1 8.1-8.1-8.1c-.6-.6-1.6-.6-2.2 0s-.6 1.6 0 2.2l8.1 8.1-8 8c-.6.6-.6 1.6 0 2.2s1.6.6 2.2 0l8-8 8 8c.6.6 1.6.6 2.2 0 .6-.6.6-1.6 0-2.2l-8-8z" class="st3"/><path fill="#ba0003" d="M39.3 109.6H44v18.9h-4.7v-18.9zm0 23.6H44v4.7h-4.7v-4.7zm28.2 6.8L43.2 96.3c-.3-.6-.9-.9-1.5-.9s-1.2.4-1.5.9L15.9 140c-.3.6-.3 1.3 0 1.8.3.6.9.9 1.5.9h48.5c.6 0 1.2-.4 1.5-.9.4-.6.4-1.3.1-1.8zm4 4a6.82 6.82 0 0 1-5.9 3.5h-48c-2.4 0-4.7-1.3-5.9-3.5a6.68 6.68 0 0 1 0-6.7l24-43.2a6.84 6.84 0 0 1 11.8 0l24 43.2c1.1 2 1.1 4.6 0 6.7z"/><path fill="#4f9937" d="M114.4 126.2c6.9-9.8 21.4-29 24.8-33.3 3.2-2.9 6.6-3 9.2-.5 2.5 2.4 2.5 6.1-.2 9.2-12.6 19.9-15.1 26.5-26.6 42.4-3.5 4.8-10.5 4.4-14.2-.2a672.6 672.6 0 0 1-17.9-23c-2.6-3.5-2.1-8 1-10.7 3.3-2.9 7.7-2.7 10.9.6 4.6 4.7 8.2 10.5 13 15.5z"/><path d="M63.3 23.5l8.1-8.1c.6-.6.6-1.7 0-2.3s-1.7-.6-2.3 0l-9.2 9.2c-.3.3-.5.8-.5 1.2s.1.9.5 1.2l9.2 9.2c.6.6 1.7.6 2.3 0 .6-.6.6-1.7 0-2.3l-8.1-8.1z" class="st3"/></svg>